<svg width="11" height="7" viewBox="0 0 11 7" fill="none" xmlns="http://www.w3.org/2000/svg">
<path d="M5.13585 6.71389L0.755989 2.33403C0.6057 2.18374 0.530555 2.00124 0.530555 1.78654C0.530555 1.57185 0.6057 1.38935 0.755989 1.23906L1.4967 0.530555C1.64699 0.380265 1.82948 0.305121 2.04418 0.305121C2.25888 0.305121 2.44138 0.380265 2.59167 0.530555L5.68333 3.62222L8.775 0.530555C8.92529 0.380266 9.10778 0.305121 9.32248 0.305121C9.53718 0.305121 9.71968 0.380266 9.86996 0.530555L10.6107 1.23906C10.761 1.38935 10.8361 1.57185 10.8361 1.78654C10.8361 2.00124 10.761 2.18374 10.6107 2.33403L6.23082 6.71389C6.08053 6.86418 5.89803 6.93932 5.68333 6.93932C5.46863 6.93932 5.28614 6.86418 5.13585 6.71389Z" fill="white"/>
</svg>
