<svg version="1.1" xmlns="http://www.w3.org/2000/svg" id="symbol-definitions" style="display: none;">

	<!-- Local mark thin weight -->
	<symbol id="icon-local" viewBox="0 0 172.4 169.9">
		<path d="M79.6,166.7v-29.4c0-0.7-0.4-1.5-0.9-2.1L28.2,84.7l50.5-50.5c0.6-0.5,0.9-1.3,0.9-2.1V3c0-1.1-0.8-2.3-1.9-2.8
			C77.4,0.1,77,0,76.7,0c-0.8,0-1.6,0.3-2.2,0.9L9.7,65.7C3.3,72.1,0.1,78.4,0,84.9c0,6.4,3.1,12.6,9.4,19L74.5,169
			c0.5,0.6,1.3,0.9,2.1,0.9c0.5,0,0.6-0.1,0.6-0.1l0.5-0.3C78.9,169,79.6,167.9,79.6,166.7z M12.3,98.6l-2.3-3C7.2,92,5.9,88.5,5.9,85
			c0.1-4.9,2.7-9.8,8-15l59.7-59.7v20.8L21.1,83.6c-3.7,3.7-6.3,7.6-7.6,11.5L12.3,98.6z M73.6,159.6l-51-51.1
			c-0.2-0.3-0.3-0.5-0.5-0.6c-4.8-4.8-4.6-10.6,0.6-17.1l1.4-1.7l49.6,49.6v20.9L73.6,159.6L73.6,159.6z"/>
		<path d="M172.4,85.1c0-6.4-3.1-12.6-9.4-19L97.9,1c-0.6-0.6-1.3-0.9-2.1-0.9c-0.4,0-0.7,0.1-1.1,0.2
			c-1.1,0.5-1.9,1.6-1.9,2.8v29.5c0,0.7,0.4,1.5,0.9,2.1l50.5,50.5l-50.5,50.5c-0.6,0.5-0.9,1.3-0.9,2.1v29.1c0,1.2,0.7,2.3,1.9,2.8
			c0.4,0.2,0.8,0.2,1.1,0.2c0.8,0,1.5-0.3,2.2-0.9l64.7-64.7C169.1,97.8,172.3,91.6,172.4,85.1z M98.8,31.2v-21l51.1,51.1
			c0.2,0.2,0.3,0.4,0.4,0.6c4.8,4.8,4.6,10.6-0.5,17.1l-1.4,1.7L98.8,31.2z M98.7,159.6v-20.7l0.6-0.6l51.9-52
			c3.7-3.7,6.3-7.6,7.6-11.5l1.2-3.6l2.3,3c2.8,3.6,4.1,7.1,4.1,10.6c-0.1,4.9-2.7,9.8-8,15L98.7,159.6z"/>
		<path d="M48.7,88H123c1.5,0,2.8-1.3,2.8-2.8v-0.4c0-1.5-1.3-2.8-2.8-2.8H48.7c-1.5,0-2.8,1.3-2.8,2.8v0.4
			C45.9,86.7,47.2,88,48.7,88z"/>
		<path d="M108.6,67.5H63c-1.5,0-2.8,1.3-2.8,2.8v0.4c0,1.5,1.3,2.8,2.8,2.8h45.6c1.5,0,2.8-1.3,2.8-2.8v-0.4
			C111.4,68.8,110.1,67.5,108.6,67.5z"/>
		<path d="M94.5,52.9H76.4c-1.5,0-2.8,1.3-2.8,2.8v0.4c0,1.5,1.3,2.8,2.8,2.8h18.1c1.5,0,2.8-1.3,2.8-2.8v-0.4
			C97.3,54.2,96,52.9,94.5,52.9z"/>
		<path d="M94.5,111.4H76.4c-1.5,0-2.8,1.3-2.8,2.8v0.4c0,1.5,1.3,2.8,2.8,2.8h18.1c1.5,0,2.8-1.3,2.8-2.8v-0.4
			C97.3,112.7,96,111.4,94.5,111.4z"/>
		<path d="M63,102.7h45.6c1.5,0,2.8-1.3,2.8-2.8v-0.4c0-1.5-1.3-2.8-2.8-2.8H63c-1.5,0-2.8,1.3-2.8,2.8v0.4
			C60.2,101.4,61.5,102.7,63,102.7z"/>
	</symbol>

	<!-- Local mark heavy weight -->
	<symbol id="icon-local-heavy" viewBox="0 0 176.4 173.9">
		<g>
			<path style="fill:none;" d="M25.5,108.5c0.3,0.3,0.5,0.6,0.7,0.9l47.4,47.4v-15.3L26.2,94.1C19.5,102.5,24,107,25.5,108.5z"/>
			<path style="fill:none;" d="M21.7,84.1l51.9-51.9V17.1L17.3,73.4C12.4,78.3,10,82.8,9.9,87c0,3,1.2,6.1,3.7,9.4
				C15,92.3,17.7,88.1,21.7,84.1z"/>
			<path style="fill:none;" d="M102.7,156.8l56.3-56.3c4.9-4.9,7.3-9.4,7.4-13.6c0-3-1.2-6.1-3.7-9.4c-1.4,4.1-4.1,8.3-8.1,12.3l-51.9,52
				L102.7,156.8L102.7,156.8z"/>
			<path style="fill:none;" d="M150.9,65.4c-0.3-0.3-0.5-0.6-0.7-0.9l-47.4-47.4v15.3l47.4,47.4C156.9,71.4,152.4,66.9,150.9,65.4z"/>
			<path d="M75.1,172.4c0.9,1,2.2,1.5,3.5,1.5c0.6,0,1.3-0.1,1.9-0.6c1.9-0.8,3.1-2.6,3.1-4.6v-29.4
				c0-1.3-0.6-2.6-1.5-3.5L33,86.7l49.1-49.1c1-0.9,1.5-2.2,1.5-3.5V5c0-2-1.3-3.8-3.1-4.6s-4-0.3-5.4,1.1L10.3,66.3
				C3.4,73.2,0.1,79.9,0,86.9c0,7,3.2,13.6,10,20.4L75.1,172.4z M73.6,141.5v15.3l-47.4-47.4c-0.2-0.3-0.4-0.6-0.7-0.9
				c-1.5-1.5-6-6,0.7-14.4L73.6,141.5z M17.3,73.4l56.3-56.3v15.1L21.7,84.1c-4,4-6.7,8.2-8.1,12.3C11.1,93.1,9.9,90,9.9,87
				C10,82.8,12.4,78.3,17.3,73.4z"/>
			<path d="M143.4,87.2l-49.1,49.1c-1,0.9-1.5,2.2-1.5,3.5v29.1c0,2,1.2,3.8,3.1,4.6c0.6,0.3,1.3,0.4,1.9,0.4
				c1.3,0,2.5-0.5,3.5-1.4l64.8-64.8c6.9-6.9,10.2-13.6,10.3-20.6c0-7-3.2-13.6-10-20.4L101.3,1.6c-1.4-1.4-3.5-1.9-5.4-1.1
				c-1.9,0.8-3.1,2.6-3.1,4.6v29.5c0,1.3,0.6,2.6,1.5,3.5L143.4,87.2z M162.7,77.5c2.5,3.3,3.7,6.4,3.7,9.4c-0.1,4.2-2.5,8.7-7.4,13.6
				l-56.3,56.3v-15l51.9-52C158.6,85.8,161.3,81.6,162.7,77.5z M102.8,17.1l47.4,47.4c0.2,0.3,0.4,0.6,0.7,0.9c1.5,1.5,6,6-0.7,14.4
				l-47.4-47.4L102.8,17.1L102.8,17.1z"/>
			<path d="M46.9,86.8v0.4c0,2.1,1.7,3.8,3.8,3.8H125c2.1,0,3.8-1.7,3.8-3.8v-0.4c0-2.1-1.7-3.8-3.8-3.8H50.7
				C48.6,83,46.9,84.7,46.9,86.8z"/>
			<path d="M61.2,72.3v0.4c0,2.1,1.7,3.8,3.8,3.8h45.6c2.1,0,3.8-1.7,3.8-3.8v-0.4c0-2.1-1.7-3.8-3.8-3.8H65
				C62.9,68.5,61.2,70.2,61.2,72.3z"/>
			<path d="M96.5,61.9c2.1,0,3.8-1.7,3.8-3.8v-0.4c0-2.1-1.7-3.8-3.8-3.8H78.4c-2.1,0-3.8,1.7-3.8,3.8v0.4
				c0,2.1,1.7,3.8,3.8,3.8H96.5z"/>
			<path d="M78.4,120.4h18.1c2.1,0,3.8-1.7,3.8-3.8v-0.4c0-2.1-1.7-3.8-3.8-3.8H78.4c-2.1,0-3.8,1.7-3.8,3.8v0.4
				C74.6,118.7,76.3,120.4,78.4,120.4z"/>
			<path d="M65,105.7h45.6c2.1,0,3.8-1.7,3.8-3.8v-0.4c0-2.1-1.7-3.8-3.8-3.8H65c-2.1,0-3.8,1.7-3.8,3.8v0.4
				C61.2,104,62.9,105.7,65,105.7z"/>
		</g>
	</symbol>

	<!-- FW Bug  -->
	<symbol id="icon-fw-bug" viewBox="0 0 319.4 317.7">
		<path d="M160.1,35.5c-68.2,0-123.4,55.3-123.4,123.4S92,282.3,160.1,282.3S283.5,227,283.5,158.9
			S228.2,35.5,160.1,35.5z M126,53.2c10.7-3.5,22.2-5.4,34.1-5.4c12,0,23.6,1.9,34.4,5.5c-7.1,4.9-12.2,11.6-14.9,19.7
			c-4.7,14.1,0.3,27,4.6,38.4l0.5,1.3c2.6,6.7,3.8,15.3-2.8,21.4c-2.7-2.4-5.7-4.3-9-5.7c1-13.9-7.1-26.2-22.7-33.2l-1.3-0.6
			c-10.2-4.6-19.1-8.6-23.5-17.1c-4.8-9.2-2.1-18.1,1.1-23.9L126,53.2z M177.5,158.6c0,9.6-7.8,17.4-17.4,17.4s-17.4-7.8-17.4-17.4
			s7.8-17.4,17.4-17.4S177.5,149,177.5,158.6z M107.9,60.9c-1.3,8.2,0,16.3,3.9,23.7c6.9,13.2,19.6,18.9,30.8,24l1.2,0.6
			c6.6,3,13.6,8.2,13.7,16.7c-3.7,0.3-7.2,1.2-10.4,2.6c-9.3-10.7-23.8-13.8-39.9-8.1l-1.3,0.5C95.4,124.7,86.3,128,77,125
			c-9.3-3-13.9-10.3-16.1-16C71.3,88.5,87.7,71.7,107.9,60.9z M54.2,192.3c-3.3-10.6-5.1-21.8-5.1-33.4c0-11.1,1.7-21.8,4.7-32
			c4.9,5.9,11.2,10.3,18.6,12.7c14.3,4.6,27.4-0.1,38.9-4.2l1.3-0.5c7-2.5,15.9-3.6,22.2,2.8c-2.1,2.5-3.8,5.4-5.1,8.5
			c-14.4-1.4-27.2,6.5-34.5,21.9l-0.6,1.2C90,179.2,86,187.8,77.4,192c-8.8,4.3-17.4,2.2-23-0.3L54.2,192.3z M108.2,257
			c-20-10.6-36.4-27.1-46.8-47.3c1.8,0.2,3.5,0.3,5.3,0.3c6.1,0,12.1-1.4,17.6-4.1c13.5-6.7,19.3-19.1,24.4-30.1l0.6-1.2
			c3.1-6.7,8.7-13.8,18.2-13.2c0.3,3.3,1.1,6.5,2.3,9.5c-11.2,9-14.5,23.6-8.4,39.7l0.5,1.3c3.9,10.3,7.3,19.1,4.4,28
			c-3.2,9.8-11.7,14.2-18.2,16.1L108.2,257z M194.2,264.5c-10.8,3.5-22.2,5.4-34.1,5.4c-11.9,0-23.3-1.9-34.1-5.4
			c7.1-4.9,12.2-11.6,14.9-19.7c4.7-14.1-0.3-27-4.6-38.4l-0.5-1.2c-2.6-6.8-3.8-15.6,3-21.6c2.6,2.2,5.6,4.1,8.8,5.4
			c-1.3,14.1,6.9,26.7,22.6,33.8l1.2,0.6c10.2,4.6,19.1,8.6,23.5,17.1c4.8,9.2,2.1,18.1-1.1,23.9L194.2,264.5z M212.6,256.7
			c1.2-8.1-0.1-16.1-3.9-23.4c-6.9-13.2-19.6-18.9-30.8-24l-1.2-0.6c-6.8-3.1-14-8.4-13.7-17.4c3.5-0.3,6.8-1.1,9.9-2.4
			c9.2,11.1,24,14.5,40.3,8.6l1.3-0.5c10.5-3.8,19.6-7.1,28.9-4.1c9.1,2.9,13.7,9.9,15.9,15.6C249,229,232.7,245.9,212.6,256.7z
			 M271.1,158.9c0,11-1.6,21.7-4.7,31.8c-4.8-5.8-11.1-10-18.3-12.4c-14.3-4.6-27.4,0.1-38.9,4.2l-1.3,0.5
			c-7.1,2.5-16.3,3.7-22.6-3.3c2-2.4,3.7-5.2,5-8.1c1.3,0.1,2.5,0.2,3.8,0.2c13.1,0,24.5-7.9,31.1-22.1l0.6-1.2
			c4.6-9.9,8.6-18.5,17.2-22.7c8.8-4.4,17.4-2.2,23.1,0.4C269.4,136.5,271.1,147.5,271.1,158.9z M236.2,111.9
			c-13.5,6.7-19.3,19.1-24.4,30.1l-0.6,1.2c-3.1,6.7-8.8,13.8-18.3,13.2c-0.2-3.3-1-6.5-2.1-9.5c11.2-9,14.5-23.6,8.4-39.6l-0.5-1.4
			c-3.9-10.3-7.3-19.1-4.4-28c3.2-9.8,11.7-14.2,18.2-16.1l-0.3-0.8c19.9,10.6,36.2,27.1,46.5,47.2
			C250.9,107.1,243.2,108.4,236.2,111.9z"/>
		<path d="M160.1,1.7C73.3,1.7,2.9,72.1,2.9,158.9s70.4,157.2,157.2,157.2s157.2-70.4,157.2-157.2S246.9,1.7,160.1,1.7z
			 M160.1,296.3c-75.8,0-137.5-61.7-137.5-137.5S84.3,21.3,160.1,21.3S297.6,83,297.6,158.8S235.9,296.3,160.1,296.3z"/>
		<path d="M290.8,29.2C276.1,14.3,257.1,3.4,240,0c-1.1-0.2-2.1,0.4-2.4,1.4s0.2,2.1,1.1,2.6c16.1,7.4,31.7,18.4,45.1,32
			c13.5,13.7,24.5,29.5,31.7,45.7c0.3,0.8,1.1,1.3,1.9,1.3c0.2,0,0.4,0,0.6-0.1c1-0.3,1.7-1.4,1.4-2.4
			C315.9,62.5,305.7,44.3,290.8,29.2z"/>
		<path d="M80.9,313.7c-16.1-7.4-31.7-18.4-45.1-32C22.3,268,11.3,252.2,4.1,236c-0.4-1-1.6-1.5-2.6-1.2
			s-1.7,1.4-1.4,2.4c3.6,18,13.8,36.2,28.8,51.3c14.7,14.9,33.7,25.8,50.8,29.2c0.1,0,0.3,0,0.4,0c0.9,0,1.7-0.6,2-1.5
			C82.4,315.3,81.9,314.1,80.9,313.7z"/>
	</symbol>


	<!-- Full Local Logo and Text Green/Dark Green -->
	<symbol id="icon-local-full" viewBox="0 0 458.1 173.9">
		<g>
			<path style="fill:none;" d="M216.8,148.4c-3.2,0-6,3.5-6,7.2c0,2.3,1.4,4,4,4c3.1,0,5.6-3.4,5.6-7C220.4,150.1,219.1,148.4,216.8,148.4z"
				/>
			<path style="fill:none;" d="M270.4,61.3c-11.4,0-19,10.2-19,23.6c0,13.9,7.6,24.5,19,24.5c11.4,0,18.9-10.6,18.9-24.5
				C289.4,71.5,281.8,61.3,270.4,61.3z"/>
			<path style="fill:none;" d="M154.6,89.8l-51.9,52v15l56.3-56.3c4.9-4.9,7.3-9.4,7.4-13.6c0-3-1.2-6.1-3.7-9.4
				C161.3,81.6,158.6,85.8,154.6,89.8z"/>
			<path style="fill:none;" d="M73.6,17.1L17.3,73.4C12.4,78.3,10,82.8,9.9,87c0,3,1.2,6.1,3.7,9.4c1.4-4.1,4.1-8.3,8.1-12.3l51.9-51.9V17.1z
				"/>
			<path style="fill:none;" d="M25.5,108.5c0.3,0.3,0.5,0.6,0.7,0.9l47.4,47.4v-15.3L26.2,94.1C19.5,102.5,24,107,25.5,108.5z"/>
			<path style="fill:none;" d="M150.9,65.4c-0.3-0.3-0.5-0.6-0.7-0.9l-47.4-47.4v15.3l47.4,47.4C156.9,71.4,152.4,66.9,150.9,65.4z"/>
			<path style="fill:none;" d="M352.6,147.9c-2.3,0-4.1,1.8-5.1,4.5h8.3c0.1-0.5,0.2-0.9,0.2-1.4C356,149.2,354.8,147.9,352.6,147.9z"/>
			<path style="fill:none;" d="M370.3,147.9c-2.3,0-4.3,1.8-5.1,4.5h8.3c0.1-0.5,0.2-0.9,0.2-1.4C373.7,149.2,372.5,147.9,370.3,147.9z"/>
			<polygon style="fill:none;" points="389.6,64 381.6,92.7 397.6,92.7 390.2,66.5 	"/>
			<path style="fill:#267049;" d="M239.5,145.2c-1.3,0-2.2,1.1-2.2,2.2s0.7,1.8,1.5,2.2c-0.6,2.5-2.8,5.7-5.4,9.2l-2.1-13.4h-4.9l-0.7,2.8h2.8
				l2.6,13.2c-3.3,4.1-4.9,5.5-5.8,5.5c-0.1-0.9-1-1.6-1.9-1.6c-1.1,0-2,0.8-2,2.1s1.1,2.4,2.9,2.6c2.4,0,4.7-1,10.3-8.3
				c6-7.6,7.4-11.2,7.4-13.4C242,146.4,241,145.2,239.5,145.2z"/>
			<polygon style="fill:#267049;" points="251.5,139.7 254.7,139.7 250.5,159 247.7,159 247,162 256.7,162 257.2,158.9 253.7,158.9 255.5,151 
				262.9,151 263.6,147.9 256.2,147.9 258.1,139.6 266,139.6 265.2,143.2 268.4,143.2 269.9,136.5 252.2,136.5 	"/>
			<path style="fill:#267049;" d="M278.3,158.2l-1.4-0.5c-0.8,2-1.5,2.5-2.2,2.5c-0.5,0-0.9-0.4-0.9-1.1c0-0.3,0.1-0.9,0.2-1.5l5.2-21H273
				l-0.7,2.6h3.1l-4.6,18.6c-0.1,0.4-0.2,1-0.2,1.5c0,1.8,1.1,3,3.2,2.9C275.7,162.2,277.4,161.1,278.3,158.2z"/>
			<path style="fill:#267049;" d="M294.4,145.2c-1.3,0-2.2,1.1-2.2,2.2s0.7,1.8,1.5,2.2c-0.6,2.5-2.8,5.7-5.4,9.2l-2.1-13.4h-4.9l-0.7,2.8h2.8
				l2.6,13.2c-3.3,4.1-4.9,5.5-5.8,5.5c-0.1-0.9-1-1.6-1.9-1.6c-1.1,0-2,0.8-2,2.1s1.2,2.4,2.9,2.6c2.4,0,4.7-1,10.3-8.3
				c6-7.6,7.4-11.2,7.4-13.4C296.9,146.4,295.9,145.2,294.4,145.2z"/>
			<path style="fill:#267049;" d="M320.1,145.2c-1.2,0-2.1,0.9-2.1,2.2c0,1.2,0.8,1.9,1.6,2.1c-0.2,2.2-2.1,5.5-4.2,8.9l-2.1-11h-1.9l-5.6,10.8
				l-0.7-12.7h-5l-0.7,2.8h2.9l1.2,14.4h2.1l5.8-10.2l2.1,10.2h1.9c4.9-7,7.2-11.8,7.2-14.6C322.6,146.4,321.5,145.2,320.1,145.2z"/>
			<path style="fill:#267049;" d="M338.6,160.1c-0.5,0-0.9-0.5-0.9-1.3c0-0.2,0.1-0.8,0.2-1.3l1.3-4.9c0.3-0.9,0.4-1.9,0.4-2.7
				c0-2.9-2-4.7-4.5-4.7c-2.1,0-4,1.6-5.2,3.5l2.8-12h-6.1l-0.7,2.8h3.1l-5.3,22.7h3.2l2-9c0.8-3.4,2.7-5.2,4.7-5.2
				c1.4,0,2.5,1,2.5,2.5c0,0.6,0,1.1-0.2,1.8l-1.3,5c-0.1,0.6-0.2,1.3-0.2,1.9c0,1.9,1.2,3.3,3.4,3.3c2,0,3.5-1.4,4.3-4.5l-1.4-0.6
				C339.9,159.5,339.3,160.1,338.6,160.1z"/>
			<path style="fill:#267049;" d="M352.7,145.2c-4.8,0-8.8,4.6-8.8,10.2c0,4.5,3.5,7,7.4,7c2.2,0,3.7-0.4,5.3-1.2l0.6-3.2
				c-2,1.1-3.5,1.5-5.3,1.5c-2.9,0-4.8-1.7-4.8-4.2v-0.6l11.5,0.2c0.4-1.3,0.6-2.4,0.6-3.5C359.2,147.5,356.6,145.2,352.7,145.2z
				M355.8,152.4h-8.3c1-2.7,2.8-4.5,5.1-4.5c2.2,0,3.4,1.3,3.4,3.1C356,151.5,355.9,151.9,355.8,152.4z"/>
			<path style="fill:#267049;" d="M370.3,145.2c-4.8,0-8.8,4.6-8.8,10.2c0,4.5,3.5,7,7.4,7c2.2,0,3.7-0.4,5.3-1.2l0.6-3.2
				c-2,1.1-3.5,1.5-5.3,1.5c-2.9,0-4.8-1.7-4.8-4.2v-0.6l11.5,0.2c0.4-1.3,0.6-2.4,0.6-3.5C376.8,147.5,374.2,145.2,370.3,145.2z
				M373.5,152.4h-8.3c0.8-2.7,2.8-4.5,5.1-4.5c2.2,0,3.4,1.3,3.4,3.1C373.7,151.5,373.6,151.9,373.5,152.4z"/>
			<path style="fill:#267049;" d="M387.7,136.6h-6.2l-0.7,2.6h3.1l-4.6,18.6c-0.1,0.4-0.2,1-0.2,1.5c0,1.8,1,3,3.2,2.9c1.9,0,3.6-1.1,4.5-4
				l-1.4-0.5c-0.8,2-1.5,2.5-2.2,2.5c-0.5,0-0.9-0.4-0.9-1.1c0-0.3,0.1-0.9,0.2-1.5L387.7,136.6z"/>
			<path style="fill:#267049;" d="M217.7,145.5c-2.2,0-4.2,1.5-5.5,3.3l3.3-12.4h-6.2l-0.7,2.8h3.1l-5.8,22.7h3.2l0.9-3.4c0.5,2.3,2.5,3.8,5,3.8
				c4.7,0,8.7-4.6,8.7-10.2C223.7,148.1,221.5,145.5,217.7,145.5z M214.8,159.6c-2.6,0-4-1.7-4-4c0-3.7,2.8-7.2,6-7.2
				c2.3,0,3.6,1.7,3.6,4.2C220.4,156.2,217.9,159.6,214.8,159.6z"/>
			<path style="fill:#53BB7D;" d="M33,86.7l49.1-49.1c1-0.9,1.5-2.2,1.5-3.5V5c0-2-1.3-3.8-3.1-4.6s-4-0.3-5.4,1.1L10.3,66.3
				C3.4,73.2,0.1,79.9,0,86.9c0,7,3.2,13.6,10,20.4l65.1,65.1c0.9,1,2.2,1.5,3.5,1.5c0.6,0,1.3-0.1,1.9-0.6c1.9-0.8,3.1-2.6,3.1-4.6
				v-29.4c0-1.3-0.6-2.6-1.5-3.5L33,86.7z M13.6,96.4C11.1,93.1,9.9,90,9.9,87c0.1-4.2,2.5-8.7,7.4-13.6l56.3-56.3v15.1L21.7,84.1
				C17.7,88.1,15,92.3,13.6,96.4z M73.6,156.8l-47.4-47.4c-0.2-0.3-0.4-0.6-0.7-0.9c-1.5-1.5-6-6,0.7-14.4l47.4,47.4L73.6,156.8
				L73.6,156.8z"/>
			<path style="fill:#53BB7D;" d="M101.3,1.6c-1.4-1.4-3.5-1.9-5.4-1.1c-1.9,0.8-3.1,2.6-3.1,4.6v29.5c0,1.3,0.6,2.6,1.5,3.5l49.1,49.1
				l-49.1,49.1c-1,0.9-1.5,2.2-1.5,3.5v29.1c0,2,1.2,3.8,3.1,4.6c0.6,0.3,1.3,0.4,1.9,0.4c1.3,0,2.5-0.5,3.5-1.4l64.8-64.8
				c6.9-6.9,10.2-13.6,10.3-20.6c0-7-3.2-13.6-10-20.4L101.3,1.6z M102.8,32.4V17.1l47.4,47.4c0.2,0.3,0.4,0.6,0.7,0.9
				c1.5,1.5,6,6-0.7,14.4L102.8,32.4z M159,100.5l-56.3,56.3v-15l51.9-52c4-4,6.7-8.2,8.1-12.3c2.5,3.3,3.7,6.4,3.7,9.4
				C166.3,91.1,163.9,95.6,159,100.5z"/>
			<path style="fill:#53BB7D;" d="M128.8,87.2v-0.4c0-2.1-1.7-3.8-3.8-3.8H50.7c-2.1,0-3.8,1.7-3.8,3.8v0.4c0,2.1,1.7,3.8,3.8,3.8H125
				C127.1,91,128.8,89.3,128.8,87.2z"/>
			<path style="fill:#53BB7D;" d="M110.6,68.5H65c-2.1,0-3.8,1.7-3.8,3.8v0.4c0,2.1,1.7,3.8,3.8,3.8h45.6c2.1,0,3.8-1.7,3.8-3.8v-0.4
				C114.4,70.2,112.7,68.5,110.6,68.5z"/>
			<path style="fill:#53BB7D;" d="M96.5,53.9H78.4c-2.1,0-3.8,1.7-3.8,3.8v0.4c0,2.1,1.7,3.8,3.8,3.8h18.1c2.1,0,3.8-1.7,3.8-3.8v-0.4
				C100.3,55.6,98.6,53.9,96.5,53.9z"/>
			<path style="fill:#53BB7D;" d="M78.4,112.4c-2.1,0-3.8,1.7-3.8,3.8v0.4c0,2.1,1.7,3.8,3.8,3.8h18.1c2.1,0,3.8-1.7,3.8-3.8v-0.4
				c0-2.1-1.7-3.8-3.8-3.8H78.4z"/>
			<path style="fill:#53BB7D;" d="M114.4,101.9v-0.4c0-2.1-1.7-3.8-3.8-3.8H65c-2.1,0-3.8,1.7-3.8,3.8v0.4c0,2.1,1.7,3.8,3.8,3.8h45.6
				C112.7,105.7,114.4,104,114.4,101.9z"/>
			<path style="fill:#53BA7D;" d="M236.3,118.2c2.2,0,3.2-1,3.2-3.2v-3.3c0-0.9-0.2-1.6-0.6-2.1c-0.5-0.7-1.4-1-2.6-1h-20.7V56
				c0-2.1-1.1-3.2-3.1-3.2l-4.3-0.1c-2.1,0-3.1,1.1-3.1,3.2v53.7v5.5c0,2.2,1,3.2,3.1,3.2L236.3,118.2L236.3,118.2z"/>
			<path style="fill:#53BA7D;" d="M336.6,119.4c7.3,0,14.1-2.8,19.8-8.1c0.6-0.5,0.9-1.2,1-1.9c0.2-0.9,0-1.9-0.6-2.9l-1.6-2.5
				c-0.5-0.9-1.1-1.3-1.7-1.4c-0.7-0.1-1.4,0.2-2.2,0.9c-4.6,3.9-9.4,5.9-14.3,5.9c-13.2,0-19.2-12.5-19.2-24.1
				c0-11.5,5.9-23.1,19.2-23.1c4.5,0,8.9,1.6,13.1,4.7c0.9,0.7,1.6,0.9,2.3,0.8c0.6-0.1,1.1-0.6,1.5-1.5l1.5-2.7
				c1.1-2,0.9-3.5-0.5-4.7c-3.6-2.9-9.7-6.4-18.3-6.4c-7.5,0-14.1,2.7-19.3,7.9c-6.2,6.2-9.5,15.2-9.5,25.3c0,9.7,2.8,18,7.7,23.9
				C320.5,115.7,327.9,119.4,336.6,119.4z"/>
			<path style="fill:#53BA7D;" d="M413.4,109.5L396,55.2c-0.6-1.9-1.7-2.8-3.6-2.8h-5.6c-1.8,0-3,0.9-3.6,2.8l-17.6,54.3l-1.7,5.1
				c-0.4,1.2-0.3,2.2,0.2,2.9c0.6,0.7,1.6,0.9,2.4,0.9h4.4c1.9,0,3.1-0.9,3.6-2.9l1.9-6l2.5-8H400l2.5,8l2,6.1
				c0.6,1.9,1.7,2.8,3.6,2.8h4.4c1.2,0,2-0.3,2.4-0.9c0.5-0.7,0.5-1.6,0.1-2.8L413.4,109.5z M381.6,92.7l8-28.7l0.6,2.6l7.4,26.2h-16
				V92.7z"/>
			<path style="fill:#53BA7D;" d="M457.5,109.5c-0.5-0.7-1.5-1.1-2.8-1.1h-20.6V55.9c0-2.3-1.1-3.4-3.3-3.4h-4.2c-2.2,0-3.3,1.2-3.3,3.4v53.6
				v5.6c0,2.3,1,3.4,3.3,3.4h28.1c2.3,0,3.4-1.1,3.4-3.4v-3.3C458.1,110.8,457.9,110,457.5,109.5z"/>
			<path style="fill:#53BA7D;" d="M270.4,52.2c-16.5,0-28.6,14.3-28.6,32.8c0,9.8,3.2,18.4,8.6,24.5c5,5.7,12,9.2,20,9.2s15-3.5,20-9.2
				c5.3-6.1,8.5-14.7,8.5-24.5C298.9,66.5,286.9,52.2,270.4,52.2z M270.4,109.5c-11.4,0-19-10.6-19-24.5c0-13.4,7.6-23.6,19-23.6
				c11.4,0,18.9,10.2,18.9,23.6C289.4,98.8,281.8,109.5,270.4,109.5z"/>
		</g>
	</symbol>

	<!-- Full Local logo and white/dark green text -->
	<symbol id="icon-local-full-white-green" data-name="Layer 1" xmlns="http://www.w3.org/2000/svg" viewBox="0 0 459.1 173.98"><path d="M337.6 119.48a28.7 28.7 0 0019.8-8.1 7.64 7.64 0 00.9-.9 2.26 2.26 0 00.1-2.9s-1.9-3.1-2.4-3.8a2.2 2.2 0 00-1.5-1.1 2.92 2.92 0 00-2.2 1c-4.6 3.9-9.4 5.9-14.3 5.9-13.2 0-19.2-12.5-19.2-24.1s5.9-23.1 19.2-23.1a22.87 22.87 0 0113.6 5c1.1.8 2.3.7 2.9-.3l2.5-4.2c.8-1.4.6-2.3-.3-3.2a5.72 5.72 0 00-.8-.7 28.8 28.8 0 00-18.3-6.4 26.57 26.57 0 00-19.3 7.9c-6.2 6.2-9.5 15.2-9.5 25.3 0 9.7 2.8 18 7.7 23.9a26.76 26.76 0 0021.1 9.8zm-64.9-67.8c-16.7 0-29.2 14.3-29.2 33.3 0 19.5 12.5 34.2 29.2 34.2s29.1-14.7 29.1-34.2c0-18.9-12.5-33.3-29.1-33.3zm0 57.4c-10.7 0-18.4-10.2-18.4-24.1 0-13.6 7.6-23.2 18.4-23.2s18.4 9.6 18.4 23.2c0 14.3-7.6 24.1-18.4 24.1zm-33.4-.5h-23.7v-53.8a2 2 0 00-2-2h-6.5a2 2 0 00-2 2v61.5a2 2 0 002 2h32.2a2 2 0 002-2v-5.7a2 2 0 00-2-2zm217.8 0h-23.7v-53.8a2 2 0 00-2-2h-6.5a2 2 0 00-2 2v61.5a2 2 0 002 2h32.2a2 2 0 002-2v-5.7a2 2 0 00-2-2zm-42.4 7.1l-20-61.4a2 2 0 00-1.9-1.4h-6.7a1.84 1.84 0 00-1.7 1.2l-20.3 61.6a2 2 0 001.9 2.6h6.5a2 2 0 001.9-1.4l5.4-16.9h19.4l5.5 16.9a2 2 0 001.9 1.4h6.1a2 2 0 002-2.6zm-32.5-25l6-18.8c.5-1.5 1-3.5 1.4-5.2.4 1.8.9 3.7 1.4 5.2l6 18.8zM33 86.78l49.1-49.1a4.69 4.69 0 001.5-3.5V4.98a5.15 5.15 0 00-3.1-4.6 5 5 0 00-5.4 1.1l-64.8 64.9C3.4 73.28.1 79.98 0 86.98s3.2 13.6 10 20.4l65.1 65.1a4.69 4.69 0 003.5 1.5 2.86 2.86 0 001.9-.6 5 5 0 003.1-4.6v-29.4a5.09 5.09 0 00-1.5-3.5zm-19.4 9.7c-2.5-3.3-3.7-6.4-3.7-9.4.1-4.2 2.5-8.7 7.4-13.6l56.3-56.3v15.1l-51.9 51.9a32 32 0 00-8.1 12.3zm60 60.3l-47.4-47.4a5.5 5.5 0 00-.7-.9c-1.5-1.5-6-6 .7-14.4l47.4 47.4v15.3zm27.7-155.2a4.91 4.91 0 00-5.4-1.1 5 5 0 00-3.1 4.6v29.5a5.09 5.09 0 001.5 3.5l49.1 49.1-49.1 49.1a4.69 4.69 0 00-1.5 3.5v29.1a5 5 0 003.1 4.6 4.33 4.33 0 001.9.4 5.18 5.18 0 003.5-1.4l64.8-64.8c6.9-6.9 10.2-13.6 10.3-20.6s-3.2-13.6-10-20.4zm1.5 30.9v-15.3l47.4 47.4a5.5 5.5 0 00.7.9c1.5 1.5 6 6-.7 14.4zm56.2 68.1l-56.3 56.3v-15l51.9-52a32.74 32.74 0 008.1-12.3c2.5 3.3 3.7 6.4 3.7 9.4-.1 4.2-2.5 8.6-7.4 13.6zm-34-9.5H50.7a3.8 3.8 0 01-3.8-3.8v-.4a3.8 3.8 0 013.8-3.8H125a3.8 3.8 0 013.8 3.8v.4a3.86 3.86 0 01-3.8 3.8zm-10.6-18.7v.4a3.8 3.8 0 01-3.8 3.8H65a3.8 3.8 0 01-3.8-3.8v-.4a3.8 3.8 0 013.8-3.8h45.6a3.8 3.8 0 013.8 3.8zm-14.1-14.6v.4a3.8 3.8 0 01-3.8 3.8H78.4a3.8 3.8 0 01-3.8-3.8v-.4a3.8 3.8 0 013.8-3.8h18.1a3.74 3.74 0 013.8 3.8zm-3.8 54.7a3.8 3.8 0 013.8 3.8v.4a3.8 3.8 0 01-3.8 3.8H78.4a3.8 3.8 0 01-3.8-3.8v-.4a3.8 3.8 0 013.8-3.8zm14.1-6.7H65a3.8 3.8 0 01-3.8-3.8v-.4a3.8 3.8 0 013.8-3.8h45.6a3.8 3.8 0 013.8 3.8v.4a3.8 3.8 0 01-3.8 3.8z" fill="#fff"/></symbol>


	<!-- Full Local logo and white/dark green text -->
	<symbol id="icon-local-full-uncolored" xmlns="http://www.w3.org/2000/svg" viewBox="0 0 459.1 173.98"><path d="M337.6 119.48a28.7 28.7 0 0019.8-8.1 7.64 7.64 0 00.9-.9 2.26 2.26 0 00.1-2.9s-1.9-3.1-2.4-3.8a2.2 2.2 0 00-1.5-1.1 2.92 2.92 0 00-2.2 1c-4.6 3.9-9.4 5.9-14.3 5.9-13.2 0-19.2-12.5-19.2-24.1s5.9-23.1 19.2-23.1a22.87 22.87 0 0113.6 5c1.1.8 2.3.7 2.9-.3l2.5-4.2c.8-1.4.6-2.3-.3-3.2a5.72 5.72 0 00-.8-.7 28.8 28.8 0 00-18.3-6.4 26.57 26.57 0 00-19.3 7.9c-6.2 6.2-9.5 15.2-9.5 25.3 0 9.7 2.8 18 7.7 23.9a26.76 26.76 0 0021.1 9.8zm-64.9-67.8c-16.7 0-29.2 14.3-29.2 33.3 0 19.5 12.5 34.2 29.2 34.2s29.1-14.7 29.1-34.2c0-18.9-12.5-33.3-29.1-33.3zm0 57.4c-10.7 0-18.4-10.2-18.4-24.1 0-13.6 7.6-23.2 18.4-23.2s18.4 9.6 18.4 23.2c0 14.3-7.6 24.1-18.4 24.1zm-33.4-.5h-23.7v-53.8a2 2 0 00-2-2h-6.5a2 2 0 00-2 2v61.5a2 2 0 002 2h32.2a2 2 0 002-2v-5.7a2 2 0 00-2-2zm217.8 0h-23.7v-53.8a2 2 0 00-2-2h-6.5a2 2 0 00-2 2v61.5a2 2 0 002 2h32.2a2 2 0 002-2v-5.7a2 2 0 00-2-2zm-42.4 7.1l-20-61.4a2 2 0 00-1.9-1.4h-6.7a1.84 1.84 0 00-1.7 1.2l-20.3 61.6a2 2 0 001.9 2.6h6.5a2 2 0 001.9-1.4l5.4-16.9h19.4l5.5 16.9a2 2 0 001.9 1.4h6.1a2 2 0 002-2.6zm-32.5-25l6-18.8c.5-1.5 1-3.5 1.4-5.2.4 1.8.9 3.7 1.4 5.2l6 18.8zM33 86.78l49.1-49.1a4.69 4.69 0 001.5-3.5V4.98a5.15 5.15 0 00-3.1-4.6 5 5 0 00-5.4 1.1l-64.8 64.9C3.4 73.28.1 79.98 0 86.98s3.2 13.6 10 20.4l65.1 65.1a4.69 4.69 0 003.5 1.5 2.86 2.86 0 001.9-.6 5 5 0 003.1-4.6v-29.4a5.09 5.09 0 00-1.5-3.5zm-19.4 9.7c-2.5-3.3-3.7-6.4-3.7-9.4.1-4.2 2.5-8.7 7.4-13.6l56.3-56.3v15.1l-51.9 51.9a32 32 0 00-8.1 12.3zm60 60.3l-47.4-47.4a5.5 5.5 0 00-.7-.9c-1.5-1.5-6-6 .7-14.4l47.4 47.4v15.3zm27.7-155.2a4.91 4.91 0 00-5.4-1.1 5 5 0 00-3.1 4.6v29.5a5.09 5.09 0 001.5 3.5l49.1 49.1-49.1 49.1a4.69 4.69 0 00-1.5 3.5v29.1a5 5 0 003.1 4.6 4.33 4.33 0 001.9.4 5.18 5.18 0 003.5-1.4l64.8-64.8c6.9-6.9 10.2-13.6 10.3-20.6s-3.2-13.6-10-20.4zm1.5 30.9v-15.3l47.4 47.4a5.5 5.5 0 00.7.9c1.5 1.5 6 6-.7 14.4zm56.2 68.1l-56.3 56.3v-15l51.9-52a32.74 32.74 0 008.1-12.3c2.5 3.3 3.7 6.4 3.7 9.4-.1 4.2-2.5 8.6-7.4 13.6zm-34-9.5H50.7a3.8 3.8 0 01-3.8-3.8v-.4a3.8 3.8 0 013.8-3.8H125a3.8 3.8 0 013.8 3.8v.4a3.86 3.86 0 01-3.8 3.8zm-10.6-18.7v.4a3.8 3.8 0 01-3.8 3.8H65a3.8 3.8 0 01-3.8-3.8v-.4a3.8 3.8 0 013.8-3.8h45.6a3.8 3.8 0 013.8 3.8zm-14.1-14.6v.4a3.8 3.8 0 01-3.8 3.8H78.4a3.8 3.8 0 01-3.8-3.8v-.4a3.8 3.8 0 013.8-3.8h18.1a3.74 3.74 0 013.8 3.8zm-3.8 54.7a3.8 3.8 0 013.8 3.8v.4a3.8 3.8 0 01-3.8 3.8H78.4a3.8 3.8 0 01-3.8-3.8v-.4a3.8 3.8 0 013.8-3.8zm14.1-6.7H65a3.8 3.8 0 01-3.8-3.8v-.4a3.8 3.8 0 013.8-3.8h45.6a3.8 3.8 0 013.8 3.8v.4a3.8 3.8 0 01-3.8 3.8z" fill="#fff"/></symbol>

	<!-- Full Local logo in green  -->
	<symbol id="icon-local-full-green" viewBox="0 0 210.871 79.912"><g data-name="Group 21119" fill="#51bb7b"><path data-name="Path 9793" d="M155.064 54.88a13.184 13.184 0 009.094-3.72 3.507 3.507 0 00.413-.413 1.04 1.04 0 00.046-1.332s-.873-1.424-1.1-1.745a1.011 1.011 0 00-.689-.505 1.34 1.34 0 00-1.01.459 10.138 10.138 0 01-6.568 2.71c-6.063 0-8.819-5.741-8.819-11.069 0-5.282 2.71-10.61 8.819-10.61a10.505 10.505 0 016.247 2.3.862.862 0 001.332-.138l1.148-1.929a1.055 1.055 0 00-.138-1.47 2.629 2.629 0 00-.367-.322 13.23 13.23 0 00-8.405-2.94 12.2 12.2 0 00-8.865 3.629 16.178 16.178 0 00-4.363 11.621 17 17 0 003.537 10.978 12.29 12.29 0 009.688 4.496z"/><path data-name="Path 9794" d="M125.255 23.738c-7.671 0-13.412 6.568-13.412 15.3 0 8.957 5.741 15.709 13.412 15.709 7.625 0 13.366-6.752 13.366-15.709 0-8.686-5.741-15.3-13.366-15.3zm0 26.365c-4.915 0-8.451-4.685-8.451-11.069 0-6.247 3.491-10.656 8.451-10.656s8.451 4.409 8.451 10.656c0 6.567-3.49 11.069-8.451 11.069z"/><path data-name="Path 9795" d="M109.914 49.874H99.028V25.163a.921.921 0 00-.919-.919h-2.986a.921.921 0 00-.919.919v28.248a.921.921 0 00.919.919h14.79a.921.921 0 00.919-.919v-2.618a.921.921 0 00-.918-.919z"/><path data-name="Path 9796" d="M209.953 49.874h-10.886V25.163a.921.921 0 00-.919-.919h-2.986a.921.921 0 00-.919.919v28.248a.921.921 0 00.919.919h14.79a.921.921 0 00.919-.919v-2.618a.921.921 0 00-.918-.919z"/><path data-name="Path 9797" d="M190.478 53.135l-9.186-28.2a.939.939 0 00-.873-.643h-3.081a.845.845 0 00-.781.551l-9.319 28.292a.906.906 0 00.873 1.194h2.986a.939.939 0 00.873-.643l2.48-7.762h8.911l2.526 7.762a.939.939 0 00.873.643h2.8a.914.914 0 00.918-1.194zM175.55 41.652l2.756-8.635c.23-.689.459-1.608.643-2.388.184.827.413 1.7.643 2.388l2.756 8.635z"/><path data-name="Path 9798" d="M15.157 39.86L37.71 17.308a2.155 2.155 0 00.689-1.608V2.288A2.364 2.364 0 0036.975.175a2.272 2.272 0 00-2.48.505L4.731 30.49C1.562 33.66.05 36.737 0 39.952c0 3.215 1.47 6.247 4.593 9.37l29.9 29.9a2.155 2.155 0 001.608.689 1.312 1.312 0 00.873-.276 2.291 2.291 0 001.424-2.113v-13.5a2.339 2.339 0 00-.689-1.608zM6.25 44.316a7.188 7.188 0 01-1.7-4.318c.046-1.929 1.148-4 3.4-6.247L33.806 7.892v6.936L9.967 38.666a14.694 14.694 0 00-3.717 5.65zm27.559 27.7L12.034 50.241a2.524 2.524 0 00-.322-.413c-.689-.689-2.756-2.756.322-6.614l21.772 21.768v7.028zM46.529.727A2.256 2.256 0 0044.05.222a2.291 2.291 0 00-1.424 2.113v13.547a2.339 2.339 0 00.689 1.608l22.551 22.554-22.553 22.552a2.155 2.155 0 00-.689 1.608V77.57a2.291 2.291 0 001.426 2.112 1.99 1.99 0 00.873.184 2.378 2.378 0 001.608-.643l29.764-29.764c3.169-3.169 4.685-6.247 4.731-9.462 0-3.215-1.47-6.247-4.593-9.37zm.689 14.193V7.892l21.771 21.772a2.525 2.525 0 00.322.413c.689.689 2.756 2.756-.322 6.614zm25.813 31.279L47.172 72.058v-6.89L71.01 41.282a15.039 15.039 0 003.72-5.65 7.188 7.188 0 011.7 4.318c-.046 1.932-1.148 3.952-3.399 6.249zm-15.617-4.364H23.287a1.745 1.745 0 01-1.745-1.745v-.184a1.745 1.745 0 011.745-1.745h34.127a1.745 1.745 0 011.745 1.745v.184a1.775 1.775 0 01-1.745 1.745zm-4.864-8.589v.184a1.745 1.745 0 01-1.745 1.745h-20.95a1.745 1.745 0 01-1.745-1.745v-.184a1.745 1.745 0 011.745-1.745H50.8a1.745 1.745 0 011.75 1.745zm-6.476-6.706v.184a1.745 1.745 0 01-1.745 1.745H36.01a1.745 1.745 0 01-1.745-1.745v-.184a1.745 1.745 0 011.745-1.745h8.314a1.716 1.716 0 011.745 1.745zm-1.745 25.125a1.745 1.745 0 011.745 1.745v.184a1.745 1.745 0 01-1.745 1.745H36.01a1.745 1.745 0 01-1.745-1.745v-.184a1.745 1.745 0 011.745-1.745zm6.476-3.077h-20.95a1.745 1.745 0 01-1.745-1.746v-.184a1.745 1.745 0 011.745-1.745H50.8a1.745 1.745 0 011.75 1.745v.184a1.745 1.745 0 01-1.75 1.745z"/></g></symbol>

	<!-- Flywheel Horizontal Logo -->
	<symbol id="icon-fw-horz" viewBox="0 0 589.1 164.3">
		<g>
			<g>
				<path d="M82.7,18.3c-35.2,0-63.8,28.6-63.8,63.8s28.6,63.8,63.8,63.8s63.8-28.6,63.8-63.8S118,18.3,82.7,18.3z
					M65.6,27.3c5.4-1.7,11.1-2.6,17.1-2.6c6.2,0,12.2,1,17.8,2.8c-3.7,2.5-6.3,6-7.7,10.2c-2.4,7.3,0.1,14,2.4,19.8l0.2,0.6
					c1.3,3.5,1.9,7.9-1.4,11c-1.4-1.2-2.9-2.2-4.7-3c0.5-7.2-3.7-13.5-11.7-17.2L77,48.6c-5.3-2.4-9.9-4.5-12.1-8.8
					C62.4,35,63.8,30.5,65.6,27.3L65.6,27.3z M91.8,81.9c0,5-4,9-9,9s-9-4-9-9s4-9,9-9S91.8,77,91.8,81.9z M55.8,31.4
					c-0.7,4.2,0,8.4,2,12.2c3.6,6.8,10.1,9.8,15.9,12.4l0.6,0.3c3.4,1.5,7,4.2,7.1,8.6c-1.9,0.1-3.7,0.6-5.4,1.3
					c-4.8-5.5-12.3-7.1-20.6-4.2l-0.7,0.2c-5.4,2-10.1,3.7-14.9,2.1C35,62.8,32.6,59,31.5,56C36.9,45.7,45.3,37,55.8,31.4z M27.9,99
					c-1.6-5.3-2.5-11-2.5-16.9c0-5.7,0.9-11.3,2.4-16.5c2.5,3.1,5.8,5.3,9.6,6.5c7.4,2.4,14.1,0,20.1-2.2l0.7-0.2
					c3.6-1.3,8.2-1.9,11.5,1.5c-1.1,1.3-2,2.8-2.6,4.4c-7.5-0.7-14.1,3.3-17.8,11.3L49,87.5c-2.4,5.1-4.5,9.6-8.9,11.8
					c-4.5,2.2-9,1.1-11.9-0.2L27.9,99z M55.2,132.4c-10-5.5-18.2-13.9-23.5-24.1c0.9,0.1,1.8,0.2,2.7,0.2c3.2,0,6.2-0.7,9.1-2.1
					c7-3.4,10-9.9,12.6-15.5l0.3-0.6c1.6-3.4,4.5-7.1,9.4-6.8c0.2,1.7,0.6,3.4,1.2,4.9c-5.8,4.7-7.5,12.2-4.3,20.5l0.2,0.7
					c2,5.3,3.8,9.9,2.3,14.5c-1.7,5.1-6,7.3-9.4,8.3L55.2,132.4z M100,136.8c-5.5,1.7-11.3,2.7-17.3,2.7c-6.1,0-12.1-1-17.6-2.8
					c3.7-2.5,6.3-6,7.7-10.2c2.4-7.3-0.1-14-2.4-19.8l-0.2-0.6c-1.3-3.5-2-8,1.6-11.2c1.4,1.2,2.9,2.1,4.5,2.8
					c-0.7,7.3,3.5,13.8,11.7,17.5l0.6,0.3c5.3,2.4,9.9,4.5,12.1,8.8c2.5,4.8,1.1,9.3-0.6,12.4C100.2,136.6,100.2,136.8,100,136.8z
					M109.9,132.6c0.6-4.2-0.1-8.3-2-12.1c-3.6-6.8-10.1-9.8-15.9-12.4l-0.6-0.3c-3.5-1.6-7.2-4.4-7.1-9c1.8-0.2,3.5-0.6,5.1-1.2
					c4.8,5.7,12.4,7.5,20.8,4.5l0.7-0.2c5.4-2,10.1-3.7,14.9-2.1c4.7,1.5,7.1,5.1,8.2,8.1C128.7,118.3,120.3,127,109.9,132.6z
					M140.1,82.1c0,5.7-0.8,11.2-2.4,16.4c-2.5-3-5.7-5.2-9.5-6.4c-7.4-2.4-14.1,0-20.1,2.2l-0.7,0.2c-3.7,1.3-8.4,1.9-11.7-1.7
					c1.1-1.3,1.9-2.7,2.6-4.2c0.7,0.1,1.3,0.1,1.9,0.1c6.8,0,12.6-4.1,16.1-11.4l0.3-0.6c2.4-5.1,4.5-9.6,8.9-11.8
					c4.5-2.2,9-1.2,12,0.2C139.2,70.5,140.1,76.2,140.1,82.1z M122.1,57.8c-7,3.4-10,9.9-12.6,15.5l-0.3,0.6c-1.6,3.5-4.5,7.2-9.5,6.8
					c-0.1-1.7-0.5-3.4-1.1-4.9c5.8-4.7,7.5-12.2,4.3-20.5l-0.3-0.7c-2-5.3-3.8-9.9-2.3-14.5c1.7-5.1,6-7.3,9.4-8.3l0.4-0.1
					c10,5.5,18.2,13.9,23.5,24.1C129.7,55.3,125.7,56,122.1,57.8z"/>
				<path d="M82.7,0.8C37.8,0.8,1.4,37.2,1.4,82.1s36.4,81.3,81.3,81.3S164,127,164,82.1S127.6,0.8,82.7,0.8z M82.7,153.1
					c-39.2,0-71.1-31.9-71.1-71.1s32-71,71.1-71c39.2,0,71.1,31.9,71.1,71.1S121.9,153.1,82.7,153.1z"/>
				<path d="M150.3,15.1C142.7,7.4,132.9,1.8,124.1,0c-0.5-0.1-1.1,0.2-1.3,0.7s0.1,1.1,0.6,1.3
					c8.3,3.8,16.4,9.5,23.3,16.5c7,7.1,12.7,15.2,16.4,23.6c0.2,0.4,0.6,0.7,1,0.7c0.1,0,0.2,0,0.3-0.1c0.5-0.2,0.9-0.7,0.7-1.3
					C163.3,32.3,158,22.8,150.3,15.1z"/>
				<path d="M41.8,162.1c-8.3-3.8-16.4-9.5-23.3-16.5c-7-7.1-12.7-15.2-16.4-23.6c-0.2-0.5-0.8-0.8-1.3-0.6
					s-0.9,0.7-0.7,1.3C2,132,7.3,141.4,15,149.2c7.6,7.7,17.4,13.3,26.2,15.1c0.1,0,0.1,0,0.2,0c0.5,0,0.9-0.3,1-0.8
					C42.6,162.9,42.3,162.3,41.8,162.1z"/>
				<path d="M229.5,49.8h-30c-1,0-1.8,0.8-1.8,1.8v61.6c0,1,0.8,1.8,1.8,1.8h6c1,0,1.8-0.8,1.8-1.8V87h19.4
					c1,0,1.8-0.8,1.8-1.8v-6c0-1-0.8-1.8-1.8-1.8h-19.4V59.2h22.2c1,0,1.8-0.8,1.8-1.8v-6C231.3,50.5,230.5,49.8,229.5,49.8z"/>
				<path d="M275.8,105.4h-22.2V51.5c0-1-0.8-1.8-1.8-1.8h-6c-1,0-1.8,0.8-1.8,1.8v61.6c0,1,0.8,1.8,1.8,1.8h30
					c1,0,1.8-0.8,1.8-1.8v-6C277.5,106.2,276.7,105.4,275.8,105.4z"/>
				<path d="M317.7,49.5H311c-0.6,0-1.2,0.4-1.5,0.9l-13.6,25.1l-13.8-25.1c-0.3-0.6-0.9-0.9-1.5-0.9h-6.7
					c-0.6,0-1.2,0.3-1.5,0.9c-0.3,0.5-0.3,1.2,0,1.7l18.7,34.4v26.6c0,1,0.8,1.8,1.8,1.8h6c1,0,1.8-0.8,1.8-1.8v-26L319.4,52
					c0.3-0.5,0.3-1.2,0-1.7C318.9,49.9,318.3,49.5,317.7,49.5z"/>
				<path d="M587.3,105.4h-22.2V51.5c0-1-0.8-1.8-1.8-1.8h-6c-1,0-1.8,0.8-1.8,1.8v61.6c0,1,0.8,1.8,1.8,1.8h30
					c1,0,1.8-0.8,1.8-1.8v-6C589.1,106.2,588.3,105.4,587.3,105.4z"/>
				<path d="M443.8,49.8h-6c-1,0-1.8,0.8-1.8,1.8v25.9h-21.5V51.6c0-1-0.8-1.8-1.8-1.8h-6c-1,0-1.8,0.8-1.8,1.8v61.6
					c0,1,0.8,1.8,1.8,1.8h6c1,0,1.8-0.8,1.8-1.8V87H436v26.2c0,1,0.8,1.8,1.8,1.8h6c1,0,1.8-0.8,1.8-1.8V51.6
					C445.5,50.5,444.7,49.8,443.8,49.8z"/>
				<path d="M492.1,49.8h-30.4c-1,0-1.8,0.8-1.8,1.8v61.6c0,1,0.8,1.8,1.8,1.8h30.4c1,0,1.8-0.8,1.8-1.8v-6
					c0-1-0.8-1.8-1.8-1.8h-22.6V87h19.7c1,0,1.8-0.8,1.8-1.8v-6c0-1-0.8-1.8-1.8-1.8h-19.7V59.2h22.6c1,0,1.8-0.8,1.8-1.8v-6
					C493.9,50.5,493.1,49.8,492.1,49.8z"/>
				<path d="M540,49.8h-30.3c-1,0-1.8,0.8-1.8,1.8v61.6c0,1,0.8,1.8,1.8,1.8h30.4c1,0,1.8-0.8,1.8-1.8v-6
					c0-1-0.8-1.8-1.8-1.8h-22.6V87h19.8c1,0,1.8-0.8,1.8-1.8v-6c0-1-0.8-1.8-1.8-1.8h-19.8V59.2h22.6c1,0,1.8-0.8,1.8-1.8v-6
					C541.8,50.5,541,49.8,540,49.8z"/>
				<path class="st0" d="M392.8,49.7h-6.6c-0.6,0-1.1,0.4-1.2,1l-10.1,43.6l-10.3-43.7c-0.1-0.6-0.6-1-1.2-1h-6.7
					c-0.6,0-1.1,0.4-1.2,1l-10.3,43.6l-10.1-43.6c-0.1-0.6-0.6-1-1.2-1h-6.6c-0.4,0-0.7,0.2-1,0.5c-0.2,0.3-0.3,0.7-0.2,1.1l14.6,62.7
					c0,0.2,0.1,0.4,0.3,0.6c0.2,0.3,0.6,0.5,1,0.5h6.6c0.6,0,1.1-0.4,1.2-1l10.4-43.8l10.3,43.8c0.1,0.6,0.6,1,1.2,1h6.6
					c0.6,0,1.1-0.4,1.2-1l14.6-62.8c0.1-0.4,0-0.8-0.2-1.1C393.5,49.9,393.1,49.7,392.8,49.7z"/>
			</g>
		</g>
	</symbol>


	<!-- Connect Icon  -->
	<symbol id="icon-connect" viewBox="0 0 55.6 47.3">
		<g>
			<path d="M40.1,5.6c-1.5,0-3.1,0.2-4.5,0.7c-3.2-4-8-6.3-13.2-6.3C12.9,0,5.3,7.7,5.3,17.1c0,1,0.1,2,0.3,2.9
				C2.2,21.2,0,24.5,0,28.1c0,4.8,3.9,8.7,8.7,8.7c0.6,0,1-0.4,1-1s-0.4-1-1-1c-3.7,0-6.7-3-6.7-6.7c0-3,2-5.7,5-6.4l0,0
				c0.3-0.1,0.5-0.2,0.6-0.5l0,0c0.1-0.1,0.1-0.2,0.1-0.3c0-0.1,0-0.1,0-0.2s0-0.1,0-0.2c-0.3-1.1-0.4-2.2-0.4-3.4
				C7.3,8.8,14,2,22.4,2c4.8,0,9.2,2.2,12.1,6l0,0l0.1,0.1c0.1,0,0.1,0.1,0.2,0.1h0.1c0.1,0,0.2,0.1,0.3,0.1h0.1c0.1,0,0.2,0,0.3,0
				l0,0c1.5-0.5,3-0.8,4.5-0.8c7.5,0,13.6,6.1,13.6,13.6c0,5.8-3.6,10.9-9.1,12.8c-0.5,0.2-0.8,0.8-0.6,1.3c0.1,0.4,0.5,0.7,0.9,0.7
				c0.1,0,0.2,0,0.3-0.1c6.2-2.2,10.4-8.1,10.4-14.7C55.7,12.6,48.7,5.6,40.1,5.6z"/>
			<path d="M22.3,29.2c-0.3,0.5-0.1,1.1,0.4,1.3l4.4,2.3c0.1,0.1,0.3,0.1,0.5,0.1s0.3,0,0.5-0.1l4.4-2.3
				c0.5-0.3,0.7-0.9,0.4-1.3c-0.3-0.5-0.9-0.7-1.3-0.4l-3.9,2l-3.9-2C23.1,28.5,22.5,28.7,22.3,29.2z"/>
			<path d="M18.9,34.4c-0.3,0.5-0.1,1.1,0.4,1.3l7.8,4.1c0.1,0.1,0.3,0.1,0.5,0.1s0.3,0,0.5-0.1l7.8-4.1
				c0.5-0.3,0.7-0.9,0.4-1.3C36,33.9,35.4,33.7,35,34l-7.4,3.8L20.2,34C19.8,33.8,19.2,34,18.9,34.4z"/>
			<path d="M38.7,39.5l-11.1,5.8l-11.1-5.8c-0.5-0.3-1.1-0.1-1.3,0.4c-0.3,0.5-0.1,1.1,0.4,1.3l11.6,6
				c0.1,0.1,0.3,0.1,0.5,0.1s0.3,0,0.5-0.1l11.6-6c0.5-0.3,0.7-0.9,0.4-1.3C39.8,39.5,39.2,39.3,38.7,39.5z"/>
			<path d="M26.8,25.3c0.2,0.1,0.5,0.2,0.8,0.2s0.5-0.1,0.8-0.2s0.5-0.3,0.7-0.5s0.3-0.4,0.5-0.7c0-0.1,0-0.4,0-0.7
				c0-0.1,0-0.3,0-0.4s-0.1-0.3-0.1-0.4s-0.1-0.2-0.2-0.4c-0.1-0.1-0.2-0.2-0.3-0.3c-0.5-0.5-1.2-0.7-1.8-0.6c-0.1,0-0.3,0.1-0.4,0.1
				c-0.1,0.1-0.2,0.1-0.4,0.2c-0.1,0.1-0.2,0.2-0.3,0.3c-0.1,0.1-0.2,0.2-0.3,0.3c-0.1,0.1-0.1,0.2-0.2,0.4c0,0.1-0.1,0.2-0.1,0.4
				c0,0.1,0,0.3,0,0.4c0,0.3,0.1,0.5,0.1,0.8c0.1,0.3,0.3,0.5,0.5,0.7C26.3,25.1,26.5,25.2,26.8,25.3z"/>
		</g>
	</symbol>


	<!-- Local Connect to Flywheel Icon Heavy -->
	<symbol id="icon-connect-heavy" viewBox="0 0 32 26.9">
		<path d="M6,21H5c-2.8,0-5-2.2-5-5c0-2.1,1.3-3.9,3.1-4.6C3,10.9,3,10.5,3,10C3,4.5,7.5,0,13,0c2.9,0,5.6,1.2,7.5,3.4
			C21.3,3.2,22.2,3,23,3c5,0,9,4,9,9c0,3.7-2.2,7-5.6,8.3c-0.5,0.2-1.1,0-1.3-0.6c-0.2-0.5,0-1.1,0.6-1.3c2.7-1.1,4.4-3.6,4.4-6.5
			c0-3.9-3.1-7-7-7c-0.8,0-1.7,0.2-2.5,0.5c-0.4,0.2-0.9,0-1.2-0.3c-1.5-2-3.8-3.1-6.3-3.1c-4.4,0-8,3.6-8,8c0,0.6,0.1,1.2,0.2,1.8
			c0.1,0.3,0,0.5-0.1,0.8S4.8,13,4.5,13C3,13.3,2,14.6,2,16c0,1.7,1.3,3,3,3h1c0.6,0,1,0.4,1,1S6.6,21,6,21z M16.4,26.9l6-3
			c0.5-0.2,0.7-0.8,0.4-1.3c-0.2-0.5-0.8-0.7-1.3-0.4L16,24.9l-5.6-2.8c-0.5-0.2-1.1,0-1.3,0.4c-0.2,0.5,0,1.1,0.4,1.3l6,3
			c0.1,0.1,0.3,0.1,0.4,0.1S16.3,27,16.4,26.9z M16.6,14.4c0.2-0.1,0.4-0.2,0.5-0.3c0.1-0.1,0.2-0.3,0.3-0.5c0.1-0.2,0.1-0.4,0.1-0.6
			c0-0.1,0-0.2,0-0.3c0-0.1,0-0.2-0.1-0.3c0-0.1-0.1-0.2-0.1-0.3c-0.1-0.1-0.1-0.2-0.2-0.2c-0.3-0.3-0.9-0.5-1.3-0.4
			c-0.1,0-0.2,0-0.3,0.1c-0.1,0-0.2,0.1-0.3,0.1c-0.1,0.1-0.2,0.1-0.2,0.2c-0.1,0.1-0.1,0.1-0.2,0.2c0,0.1-0.1,0.2-0.1,0.3
			c0,0.1-0.1,0.2-0.1,0.3c0,0.1,0,0.2,0,0.3c0,0.2,0,0.4,0.1,0.6s0.2,0.4,0.3,0.5c0.1,0.1,0.3,0.2,0.5,0.3c0.2,0.1,0.4,0.1,0.6,0.1
			S16.4,14.5,16.6,14.4z M16.4,22.9l4-2c0.5-0.2,0.7-0.8,0.4-1.3c-0.2-0.5-0.8-0.7-1.3-0.4L16,20.9l-3.6-1.8c-0.5-0.2-1.1,0-1.3,0.4
			c-0.2,0.5,0,1.1,0.4,1.3l4,2c0.1,0.1,0.3,0.1,0.4,0.1S16.3,23,16.4,22.9z M16.4,18.9l2-1c0.5-0.2,0.7-0.8,0.4-1.3
			c-0.2-0.5-0.8-0.7-1.3-0.4L16,16.9l-1.6-0.8c-0.5-0.2-1.1,0-1.3,0.4c-0.2,0.5,0,1.1,0.4,1.3l2,1c0.1,0.1,0.3,0.1,0.4,0.1
			S16.3,19,16.4,18.9z"/>
	</symbol>

	<!-- Small cards switch icon -->
	<symbol id="icon-smallcards" viewBox="0 0 20 18">
		<path d="M8.2,4H0.8C0.4,4,0,3.7,0,3.3c0,0,0-0.1,0-0.1V0.8C0,0.4,0.3,0,0.7,0c0,0,0.1,0,0.1,0h7.5
			C8.7,0,9,0.3,9,0.7c0,0,0,0.1,0,0.1v2.5C9,3.7,8.7,4,8.2,4C8.3,4,8.2,4,8.2,4z"/>
		<path d="M19.3,4h-7.7C11.2,4,11,3.7,11,3.3V0.7C11,0.3,11.3,0,11.7,0c0,0,0,0,0,0h7.7
			C19.8,0,20,0.3,20,0.7v2.7C20,3.8,19.7,4,19.3,4z"/>
		<path d="M8.2,11H0.8c-0.4,0-0.7-0.2-0.8-0.6c0,0,0-0.1,0-0.1V7.8C0,7.4,0.3,7,0.7,7c0,0,0.1,0,0.1,0
			h7.5C8.7,7,9,7.3,9,7.7c0,0,0,0.1,0,0.1v2.5C9,10.7,8.7,11,8.2,11C8.3,11,8.2,11,8.2,11z"/>
		<path d="M19.3,11h-7.7c-0.4,0-0.7-0.3-0.7-0.7c0,0,0,0,0,0V7.7C11,7.3,11.3,7,11.7,7h7.7
			C19.8,7,20,7.3,20,7.7v2.7C20,10.8,19.7,11,19.3,11z"/>
		<path d="M8.2,18H0.8c-0.4,0-0.7-0.2-0.8-0.6c0,0,0-0.1,0-0.1v-2.5C0,14.4,0.3,14,0.7,14
			c0,0,0.1,0,0.1,0h7.5C8.7,14,9,14.3,9,14.7c0,0,0,0.1,0,0.1v2.5C9,17.7,8.7,18,8.2,18C8.3,18,8.2,18,8.2,18z"/>
		<path d="M19.3,18h-7.7c-0.4,0-0.7-0.3-0.7-0.7c0,0,0,0,0,0v-2.7c0-0.4,0.3-0.7,0.7-0.7c0,0,0,0,0,0
			h7.7c0.4,0,0.7,0.3,0.7,0.7c0,0,0,0,0,0v2.7C20,17.7,19.7,18,19.3,18C19.3,18,19.3,18,19.3,18z"/>
	</symbol>
	
	<!-- Grid switch icon -->
	<symbol id="icon-grid" viewBox="0 0 18 18">
		<path d="M6.6,7.6H0.9C0.5,7.6,0,7.2,0,6.7c0,0,0-0.1,0-0.1V0.9C0,0.5,0.4,0,0.9,0c0,0,0.1,0,0.1,0
			h5.7c0.5,0,0.9,0.4,0.9,0.9c0,0,0,0.1,0,0.1v5.7C7.6,7.1,7.2,7.6,6.6,7.6C6.7,7.6,6.7,7.6,6.6,7.6z"/>
		<path d="M17.1,7.6h-5.9c-0.5,0-0.9-0.4-0.9-0.8c0,0,0,0,0,0V0.9c0-0.5,0.4-0.9,0.8-0.9c0,0,0,0,0,0
			h5.9C17.6,0,18,0.4,18,0.8c0,0,0,0,0,0v5.9C18,7.2,17.6,7.6,17.1,7.6C17.2,7.6,17.2,7.6,17.1,7.6z"/>
		<path d="M6.6,18H0.9C0.5,18,0,17.6,0,17.2c0,0,0-0.1,0-0.1v-5.7c0-0.5,0.4-0.9,0.9-0.9
			c0,0,0.1,0,0.1,0h5.7c0.5,0,0.9,0.4,0.9,0.9c0,0,0,0.1,0,0.1v5.7C7.6,17.5,7.2,18,6.6,18C6.7,18,6.7,18,6.6,18z"/>
		<path d="M17.1,18h-5.9c-0.5,0-0.9-0.4-0.9-0.8c0,0,0,0,0,0v-5.9c0-0.5,0.4-0.9,0.8-0.9c0,0,0,0,0,0
			h5.9c0.5,0,0.9,0.4,0.9,0.8c0,0,0,0,0,0v5.9C18,17.6,17.6,18,17.1,18C17.2,18,17.2,18,17.1,18z"/>
	</symbol>

	<!-- Search magnifying glass icon -->
	<symbol id="icon-search" viewBox="0 0 22.7 22.7">
		<path d="M22.4,21L16,14.6c2.8-3.6,2.5-8.8-0.7-12C13.6,0.9,11.4,0,9,0C6.6,0,4.3,0.9,2.6,2.6c-3.5,3.6-3.5,9.3,0.1,12.8
		C4.4,17.1,6.6,18,9,18c2,0,4-0.7,5.6-2l6.4,6.4c0.4,0.4,1,0.4,1.4,0c0,0,0,0,0,0C22.8,22,22.8,21.4,22.4,21C22.4,21,22.4,21,22.4,21
		z M9,16c-1.9,0-3.6-0.7-4.9-2.1C2.7,12.6,2,10.9,2,9c0-1.9,0.7-3.6,2.1-4.9C5.4,2.7,7.1,2,9,2c1.9,0,3.6,0.7,4.9,2.1
		C15.3,5.4,16,7.1,16,9c0,1.9-0.7,3.6-2.1,4.9C12.6,15.3,10.9,16,9,16z"/>
	</symbol>

	<!-- Heart fav icon -->
	<symbol id="icon-heart" viewBox="0 0 22.1 20.1">
		<path d="M20.6,9.5c2.1-2.3,1.9-5.9-0.5-8c-0.9-0.8-2-1.3-3.1-1.4h-0.6c-2.2,0-4.3,1.2-5.4,3.2
		C10,1.3,7.9,0,5.6,0H5C1.9,0.4-0.3,3.3,0,6.4c0.1,1.1,0.6,2.2,1.4,3.1l8.8,10.2c0.3,0.4,0.9,0.5,1.3,0.2c0.1-0.1,0.1-0.1,0.2-0.2
		L20.6,9.5z"/>
	</symbol>

	<!-- Caret down icon -->
	<symbol id="icon-caret-down" viewBox="0 0 14 6">
		<path d="M0,1c0-0.2,0.1-0.4,0.2-0.6c0.3-0.4,1-0.5,1.4-0.2L7,3.8l5.4-3.6
		c0.4-0.3,1.1-0.2,1.4,0.3c0,0,0,0,0,0c0.3,0.4,0.2,1.1-0.3,1.4c0,0,0,0,0,0l-6,4c-0.3,0.2-0.8,0.2-1.1,0l-6-4C0.2,1.6,0,1.3,0,1z"/>
	</symbol>

	<!-- Play button icon -->
	<symbol id="icon-play" viewBox="0 0 11 12">
		<path d="M10.2,4.6L2.4,0.2C1.6-0.2,0.7,0,0.2,0.8C0.1,1,0,1.3,0,1.6v8.9C0,11.3,0.7,12,1.6,12 c0.3,0,0.6-0.1,0.8-0.2l7.8-4.4C11,6.9,11.3,6,10.9,5.2C10.7,4.9,10.5,4.7,10.2,4.6z"/>
	</symbol>

	<!-- Verified Icon Checkmark -->
	<symbol id="icon-verified" viewBox="0 0 28.1 28">
		<path d="M10.8,28c-0.3,0-0.6,0-0.9-0.1c-0.7-0.2-1.3-0.7-1.7-1.4l-0.8-1.4c-0.2-0.3-0.4-0.5-0.7-0.5l-1.6-0.1
			c-1.6-0.2-2.7-1.5-2.6-3.1l0.1-1.6c0-0.3-0.1-0.6-0.3-0.7l-1.4-1c-1.2-1-1.4-2.7-0.5-3.9l1-1.3c0.2-0.2,0.2-0.6,0.1-0.9L1,10.4
			C0.8,9.7,0.8,8.9,1.2,8.3c0.3-0.7,0.9-1.2,1.6-1.4l1.4-0.6c0.3-0.1,0.5-0.3,0.6-0.6L5.1,4C5.5,2.4,7,1.5,8.5,1.8l1.4,0.4
			c0.3,0.1,0.6,0,0.8-0.2l1.1-1.1c0,0,0.1-0.1,0.2-0.2c1.2-1,2.9-0.9,4,0.2L17,2c0.2,0.2,0.5,0.3,0.8,0.2l1.5-0.4
			c0.1,0,0.2,0,0.2-0.1c1.5-0.3,2.9,0.7,3.2,2.2l0.3,1.6c0,0.3,0.2,0.5,0.5,0.6l1.5,0.5c0.1,0,0.2,0.1,0.3,0.1
			c0.7,0.3,1.2,0.8,1.5,1.5s0.3,1.4,0,2.1L26.2,12c-0.1,0.2,0,0.6,0.2,0.8l1,1.3c0.5,0.6,0.7,1.4,0.5,2.2s-0.5,1.5-1.2,1.9l-1.3,0.9
			c-0.2,0.1-0.3,0.4-0.3,0.6l0.1,1.7c0.1,1.6-1,2.9-2.6,3.1l-1.6,0.1c-0.3,0-0.5,0.2-0.7,0.4l-0.7,1.4c-0.9,1.4-2.6,1.9-4,1.1
			l-1.3-0.8c-0.2-0.1-0.5-0.1-0.8,0l-1.2,0.8c-0.1,0-0.1,0.1-0.2,0.1C11.7,27.9,11.3,28,10.8,28z M7.9,3.7C7.5,3.7,7.2,4,7.1,4.4
			L6.8,6C6.6,7,5.9,7.8,4.9,8.2L3.5,8.7C3,8.9,2.8,9.4,2.9,9.8l0.6,1.6c0.3,1,0.2,2-0.4,2.8l-1,1.3c-0.3,0.4-0.2,0.9,0.1,1.1
			l1.3,0.9C4.4,18.1,4.8,19,4.7,20l-0.1,1.5c0,0.5,0.3,0.9,0.8,0.9L7,22.6c1,0,1.9,0.7,2.3,1.6l0.8,1.3c0.1,0.2,0.3,0.4,0.5,0.4
			c0.2,0.1,0.4,0,0.6-0.1l1.4-0.8c0.9-0.5,1.9-0.5,2.8,0l1.4,0.8c0.4,0.2,1,0.1,1.2-0.4l0.7-1.3c0.4-0.9,1.3-1.5,2.3-1.6l1.6-0.1
			c0.4,0,0.8-0.5,0.8-0.9L23.2,20c-0.1-0.9,0.3-1.9,1.1-2.5l1.3-0.9c0.2-0.1,0.3-0.3,0.3-0.6c0-0.2,0-0.5-0.2-0.7l-1-1.3
			c-0.6-0.8-0.8-1.8-0.5-2.7L25,9.7c0.1-0.2,0.1-0.4,0-0.6c-0.1-0.2-0.2-0.3-0.4-0.4L23,8.1c-1-0.3-1.7-1.2-1.9-2.2l-0.3-1.6
			c0-0.2-0.2-0.4-0.3-0.5c-0.2-0.1-0.4-0.2-0.6-0.1l-1.6,0.4c-1,0.3-2.1,0-2.8-0.8l-1.1-1.1c-0.3-0.4-0.9-0.4-1.2-0.1l-0.1,0.1
			l-1.1,1.1c-0.7,0.8-1.8,1.1-2.8,0.7L8,3.8C8,3.7,7.9,3.7,7.9,3.7z"/>
		<path d="M12.6,18.3C12.6,18.3,12.6,18.3,12.6,18.3c-0.3,0-0.6-0.1-0.7-0.3l-3.5-3.9C8,13.7,8,13,8.4,12.7
			c0.4-0.4,1-0.3,1.4,0.1l2.8,3.1l5.6-5.7c0.4-0.4,1-0.4,1.4,0c0.4,0.4,0.4,1,0,1.4L13.3,18C13.1,18.2,12.9,18.3,12.6,18.3z"/>
	</symbol>

	<symbol id="icon-speed-gauge" xmlns="http://www.w3.org/2000/svg" viewBox="0 0 63.8 63.9">
		<path d="M31.9 59.3C16.8 59.3 4.5 47 4.5 31.9c0-15 12.3-27.3 27.4-27.3S59.3 16.9 59.3 32c0 15-12.3 27.3-27.4 27.3zm0-52.7C17.9 6.6 6.5 18 6.5 32s11.4 25.4 25.4 25.4S57.3 46 57.3 32 45.9 6.6 31.9 6.6zm0 57.3C14.3 63.9 0 49.6 0 32S14.3 0 31.9 0s31.9 14.3 31.9 31.9-14.3 32-31.9 32zm0-61.9C15.4 2 2 15.4 2 32c0 16.5 13.4 29.9 29.9 29.9S61.8 48.5 61.8 32c.1-16.6-13.4-30-29.9-30zm13.6 23.6c-.4 0-.7-.2-.9-.5-1.7-3.1-4.4-5.5-7.8-6.7-1.2-.4-2.4-.7-3.7-.8-.6 0-1-.5-.9-1.1 0-.5.5-1 1.1-.9 1.4.1 2.8.4 4.2.9 3.8 1.4 6.9 4.1 8.8 7.6.3.5.1 1.1-.4 1.4 0 0-.2.1-.4.1zm-19.2-7.1c-.4 0-.8-.2-.9-.6-.2-.5.1-1.1.6-1.3 1.2-.5 2.5-.8 3.8-1 .5-.1 1 .3 1.1.9.1.5-.3 1-.9 1.1-1.1.1-2.3.4-3.3.8-.1.1-.3.1-.4.1zm14.2 8.2c-.3 0-.6-.1-.8-.4-1.8-2.5-4.7-4-7.8-4-.6 0-1-.4-1-1s.4-1 1-1c3.7 0 7.2 1.8 9.4 4.8.3.4.2 1.1-.2 1.4-.2.1-.4.2-.6.2zM11.8 38.5c-.5 0-.9-.3-1-.8v-.1c-.1-.6.2-1.2.8-1.3s1.2.2 1.3.8c.2.6-.1 1.2-.7 1.4h-.4zm40.2-.1h-.3c-.6-.1-1-.7-.8-1.3V37c.2-.6.8-.9 1.4-.7.6.2.9.8.7 1.4-.1.4-.5.7-1 .7zm-40.9-5.3c-.6 0-1.1-.5-1.1-1.1 0-.6.5-1.1 1.1-1.1s1.1.5 1.1 1.1c0 .6-.5 1.1-1.1 1.1zm41.6 0c-.6 0-1.1-.5-1.1-1.1 0-.6.5-1.1 1.1-1.1.6 0 1.1.5 1.1 1.1 0 .6-.5 1.1-1.1 1.1zm-40.9-5.4c-.1 0-.2 0-.4-.1-.6-.2-.9-.8-.7-1.4.2-.6.8-.9 1.3-.8.6.1 1 .7.8 1.3v.1c-.1.6-.5.9-1 .9zm40.2-.1c-.5 0-.9-.3-1.1-.8-.2-.6.1-1.2.7-1.4.6-.2 1.2.1 1.4.7v.1c.1.6-.2 1.2-.8 1.3 0 .1-.1.1-.2.1zm-38.1-4.9c-.2 0-.4-.1-.6-.2-.5-.3-.6-.9-.4-1.4.2-.5.8-.7 1.3-.5.6.2.9.8.7 1.4 0 .1-.1.2-.1.3-.2.2-.6.4-.9.4zm36-.1c-.4 0-.8-.2-1-.6-.3-.5-.1-1.1.4-1.4s1.2-.2 1.5.3c.1.1.1.2.1.3.2.6-.1 1.2-.7 1.4h-.3zm-32.7-4.2c-.3 0-.6-.1-.8-.3-.4-.4-.4-1.1 0-1.6.4-.4 1.1-.4 1.6 0s.4 1.1 0 1.6c-.3.2-.5.3-.8.3zm29.4-.1c-.3 0-.6-.1-.8-.3-.4-.4-.4-1.1 0-1.6.4-.4 1.1-.4 1.6 0 .4.4.4 1.1 0 1.6-.3.2-.5.3-.8.3zm-25.1-3.2c-.4 0-.7-.2-.9-.5-.3-.5-.2-1.2.3-1.5.1-.1.2-.1.3-.1.6-.2 1.2.1 1.4.7.2.5-.1 1.1-.5 1.3-.3 0-.5.1-.6.1zm20.8-.1c-.1 0-.2 0-.4-.1-.1 0-.2-.1-.3-.1-.5-.3-.6-1-.3-1.5s.9-.6 1.4-.4c.5.2.7.8.5 1.3 0 .5-.5.8-.9.8zm-15.8-2c-.5 0-.9-.3-1-.8-.2-.6.1-1.2.7-1.4h.1c.6-.1 1.2.2 1.3.8s-.2 1.2-.8 1.3c-.1.1-.2.1-.3.1zm10.7 0h-.4c-.6-.2-.9-.8-.7-1.4.2-.6.8-.9 1.4-.7s.9.8.8 1.3c-.1.4-.6.8-1.1.8zm-5.3-.7c-.6 0-1.1-.5-1.1-1.1s.5-1.1 1.1-1.1 1.1.5 1.1 1.1-.5 1.1-1.1 1.1zm23.8 30.6H35.3c-.6 0-1-.4-1-1s.4-1 1-1h20.4c.6 0 1 .4 1 1s-.4 1-1 1zm-27.4 0h-20c-.6 0-1-.4-1-1s.4-1 1-1h20.1c.6 0 1 .4 1 1s-.5 1-1.1 1zm3.4-2.1c-.2 0-.5 0-.7-.1-.8-.2-1.5-.7-2-1.4-.9-1.5-.5-3.4 1-4.4 1.5-.9 3.4-.5 4.4 1 .9 1.5.5 3.4-1 4.4-.5.3-1.1.5-1.7.5zm0-4.4c-.2 0-.4.1-.6.2-.5.3-.7 1.1-.4 1.6.2.3.4.4.7.5.3.1.6 0 .9-.2.5-.3.7-1.1.4-1.6-.2-.3-.6-.5-1-.5zm.1 7.4c-.5 0-.9 0-1.4-.2-1.6-.4-3.1-1.3-4-2.8s-1.2-3.1-.8-4.8c.4-1.6 1.3-3.1 2.8-4 2.9-1.9 6.8-1 8.7 1.9s1 6.8-1.9 8.7c-1.1.9-2.2 1.2-3.4 1.2zm0-10.6c-.8 0-1.6.2-2.3.7-1 .6-1.6 1.6-1.9 2.7-.2 1.1 0 2.3.6 3.2.6.9 1.6 1.6 2.7 1.9 1.1.2 2.3 0 3.2-.6 2-1.3 2.6-3.9 1.3-6-.8-1.2-2.2-1.9-3.6-1.9zm-1.5.2c-.4 0-.8-.3-1-.7-.2-.5.2-1.1.7-1.2l22.9-6.6c.5-.2 1.1.2 1.2.7.2.5-.2 1.1-.7 1.2l-22.8 6.6h-.3zm5.1 9c-.3 0-.6-.1-.8-.3-.4-.4-.3-1 .1-1.4l17.8-15.6c.4-.4 1-.3 1.4.1s.3 1-.1 1.4L36 42.2c-.2.2-.4.2-.6.2zm4.6 8H23.5c-.6 0-1-.4-1-1s.4-1 1-1H40c.6 0 1 .4 1 1s-.5 1-1 1z"/>
	</symbol>

	<symbol id="icon-tools" xmlns="http://www.w3.org/2000/svg" viewBox="0 0 63.9 63.6">
		<path d="M49.1 38.9h-.6L39 29.4l16.9-16.8h2.7c.4 0 .8-.2.9-.6l4.1-8.4c.2-.4.1-.9-.2-1.2L61.2.3c-.3-.2-.8-.3-1.2-.1l-8.5 4.2c-.4.2-.6.5-.6.9V8L34.2 24.7l-9.6-9.4v-.6C24.6 4.8 20.3 0 11.2 0c-.2 0-.3.1-.5.1l-2 1c-.3.2-.5.5-.6.8-.1.3.1.7.3.9L14 8.4l-4.8 4.8-5.5-5.5c-.3-.3-.6-.4-.9-.4-.4.1-.7.3-.8.6L1 10c-.1.2-.1.3-.1.5 0 9.2 4.8 13.6 14.7 13.6h.6l6.1 6.2C18.6 34.1 1.4 51.1.8 51.7c-.5.5-.8 1.2-.8 1.9 0 .6.3 1.2.8 1.7.2.3 1.6 1.6 3.2 3.1 1.9 1.8 4 3.8 4.5 4.3s1.1.9 1.8.9c.5 0 1.1-.3 1.8-.9.6-.6 18.9-18.9 21.1-21.2l6.1 6.2v.6C39.3 58 43.9 63 53.1 63c.2 0 .3-.1.5-.1l2.2-1c.3-.2.5-.4.6-.8.1-.3-.1-.7-.3-.9l-5.4-5.5 4.8-4.8 5.6 5.6c.3.3.6.4.9.3.3-.1.6-.3.8-.6l1-2.1c.1-.2.1-.3.1-.5-.1-9.3-4.9-13.7-14.8-13.7zm3.6-29.8c.2-.2.3-.5.3-.7V5.9l7.3-3.6 1.1 1-3.4 7.2h-2.5c-.3 0-.5.1-.7.3L33.9 31.5l-1.7-1.7L52.7 9.1zm-25.8 23l2.2-2.2 4.8 4.8-2.3 2.3-4.7-4.9zm-9.6-9.8c-.2-.2-.5-.3-.7-.3h-1C6.9 22 3.1 18.5 3 10.7l.3-.6 5.3 5.3c.2.2.5.3.7.3s.5-.1.7-.3l6.2-6.3c.2-.2.3-.5.3-.7s-.1-.5-.3-.7l-5.3-5.3.5-.3c7.7.1 11.1 4 11.1 12.6v1c0 .3.1.6.3.7l9.9 9.7-2.1 2.1-.7-.7c-.4-.4-1.1-.4-1.5 0l-3 3-8.1-8.2zm-6.7 38.9l-.3.3c-.1 0-.2-.1-.3-.3-.5-.5-2.6-2.4-4.5-4.3-1.6-1.5-2.9-2.8-3.2-3-.2-.2-.3-.4 0-.6.6-.6 17.8-17.7 21.5-21.4l8 8.1c-2.3 2.2-20.6 20.5-21.2 21.2zm50.9-8.4l-5.3-5.3c-.4-.4-1.1-.4-1.5 0l-6.3 6.3c-.4.4-.4 1.1 0 1.5l5.2 5.3-.6.3c-7.8-.1-11.5-4.1-11.5-12.6v-1c0-.3-.1-.5-.3-.7l-8.1-8.1 3.1-3.1c.4-.4.4-1.1 0-1.5l-.8-.9 2.1-2.1 9.8 9.7c.2.2.5.3.7.3h1c8.6 0 12.5 3.5 12.6 11.3l-.1.6zm-55.1 0c-.4.4-.4 1.1 0 1.5.2.2.5.3.7.3.3 0 .5-.1.7-.3l16.8-16.7c.4-.4.4-1.1 0-1.5-.4-.4-1.1-.4-1.5 0L6.4 52.8zm3.2 4.6c.2.2.5.3.7.3.3 0 .5-.1.7-.3l16.8-16.8c.4-.4.4-1.1 0-1.5-.4-.4-1.1-.4-1.5 0L9.6 55.9c-.4.5-.4 1.1 0 1.5z"/>
	</symbol>

	<symbol id="icon-drawing-tools" xmlns="http://www.w3.org/2000/svg" viewBox="0 0 66 64.4">
		<path d="M21 9V1c0-.6-.4-1-1-1h-4c-.6 0-1 .4-1 1v8c-.6 0-1 .4-1 1v47c0 .5.2 1 1.2 1v2.6c0 .6.4 1 1 1h.7v1.8c0 .6.4 1 1 1s1-.4 1-1v-1.8h.7c.6 0 1-.4 1-1V58h.4c.6 0 1-.4 1-1V10c0-.6-.4-1-1-1zm-4-7h2v7h-2V2zm1.6 57.6h-1.4v-1.2h1.4v1.2zM20 56h-4V11h4v45zM9 0H1C.4 0 0 .4 0 1v62c0 .6.4 1 1 1h8c.6 0 1-.4 1-1V1c0-.6-.4-1-1-1zM8 6H6c-.6 0-1 .4-1 1s.4 1 1 1h2v4H6c-.6 0-1 .4-1 1s.4 1 1 1h2v4H6c-.6 0-1 .4-1 1s.4 1 1 1h2v4H6c-.6 0-1 .4-1 1s.4 1 1 1h2v4H6c-.6 0-1 .4-1 1s.4 1 1 1h2v4H6c-.6 0-1 .4-1 1s.4 1 1 1h2v4H6c-.6 0-1 .4-1 1s.4 1 1 1h2v4H6c-.6 0-1 .4-1 1s.4 1 1 1h2v4H6c-.6 0-1 .4-1 1s.4 1 1 1h2v6H2V2h6v4zm20.2 9.9c-.6 0-1 .4-1 1v1c0 .6.4 1 1 1s1-.4 1-1v-1c0-.6-.5-1-1-1zm37.5-3.6l-1.7-5V5c0-.6-.4-1-1-1h-1V1c0-.6-.4-1-1-1s-1 .4-1 1v3h-1c-.6 0-1 .4-1 1v2.2l-1.7 5c-.2.2-.3.4-.3.7v50c0 .6.4 1 1 1h8c.6 0 1-.4 1-1V13c0-.3-.1-.5-.3-.7zm-5.8-4.6c.1-.1.1-.2.1-.3V6h2v1.4c0 .1 0 .2.1.3l1.4 4.3h-5l1.4-4.3zM60 62h-2V22h2v40zm4 0h-2V22h2v40zm0-42h-6v-6h6v6zM27 6h4c.6 0 1-.4 1-1V1c0-.6-.4-1-1-1h-4c-.6 0-1 .4-1 1v4c0 .6.4 1 1 1zm1-4h2v2h-2V2zm21 28h-8c-1.7 0-3 1.3-3 3v28.4c0 2.1 1.4 2.6 2.5 2.6H49c.7 0 1.3-.2 1.8-.6.7-.4 1.2-1.1 1.2-2V33c0-1.7-1.3-3-3-3zm1 31c0 .3-.2.6-.4.8-.3.1-.7.2-1.1.2H41c-.6 0-1-.4-1-1V48h10v13zm0-15H40V33c0-.6.4-1 1-1h8c.6 0 1 .4 1 1v13zM33.7 22.4c-.6 0-1 .4-1 1s.4 1 1 1h1c.6 0 1-.4 1-1s-.4-1-1-1h-1zm8-18h1c.6 0 1-.4 1-1s-.4-1-1-1h-1c-.6 0-1 .4-1 1s.4 1 1 1zm-3.2 2c-3.9 0-7 3.1-7 7s3.1 7 7 7 7-3.1 7-7-3.1-7-7-7zm0 12c-2.8 0-5-2.2-5-5s2.2-5 5-5 5 2.2 5 5-2.2 5-5 5zm-.8-14h1c.6 0 1-.4 1-1s-.4-1-1-1h-1c-.6 0-1 .4-1 1s.4 1 1 1zm-4 0h1c.6 0 1-.4 1-1s-.4-1-1-1h-1c-.6 0-1 .4-1 1s.4 1 1 1zm9 18h-1c-.6 0-1 .4-1 1s.4 1 1 1h1c.6 0 1-.4 1-1s-.5-1-1-1zm-13.5-9.5c0-.6-.4-1-1-1s-1 .4-1 1v1c0 .6.4 1 1 1s1-.4 1-1v-1zm0-4c0-.6-.4-1-1-1s-1 .4-1 1v1c0 .6.4 1 1 1s1-.4 1-1v-1zm10.5 14.5c0-.6-.4-1-1-1h-1c-.6 0-1 .4-1 1s.4 1 1 1h1c.5 0 1-.4 1-1zm8.5-12.5c.6 0 1-.4 1-1v-1c0-.6-.4-1-1-1s-1 .4-1 1v1c0 .6.4 1 1 1zM51 20h-4c-.6 0-1 .4-1 1v4c0 .6.4 1 1 1h4c.6 0 1-.4 1-1v-4c0-.6-.4-1-1-1zm-1 4h-2v-2h2v2zm-2.8-10.1c0 .6.4 1 1 1s1-.4 1-1v-1c0-.6-.4-1-1-1s-1 .4-1 1v1zM35 44h-1v-9.6c0-2.2-1.8-4-4-4s-4 1.8-4 4V44h-1c-.6 0-1 .4-1 1s.4 1 1 1h2v14.4c0 2.2 2.2 3.7 2.5 3.8.2.1.3.2.5.2s.4-.1.5-.2c.3-.2 2.5-1.6 2.5-3.8V46h2c.6 0 1-.4 1-1s-.4-1-1-1zm-4 16.4c0 .7-.5 1.3-1 1.7-.5-.4-1-1.1-1-1.7V46h2v14.4zM32 44h-4v-9.6c0-1.1.9-2 2-2s2 .9 2 2V44zm-5-18h4c.6 0 1-.4 1-1v-4c0-.6-.4-1-1-1h-4c-.6 0-1 .4-1 1v4c0 .6.4 1 1 1zm1-4h2v2h-2v-2zM3.5 60.1c.1.1.2.2.3.2.1.1.2.1.4.1.1 0 .3 0 .4-.1.1-.1.2-.1.3-.2.2-.2.3-.4.3-.7s-.1-.5-.3-.7c-.1-.1-.2-.2-.4-.2-.2-.1-.5-.1-.7 0-.1 0-.2.1-.3.2-.2.2-.3.4-.3.7 0 .1 0 .3.1.4.1.1.1.2.2.3zm43.7-42.2c0 .6.4 1 1 1s1-.4 1-1v-1c0-.6-.4-1-1-1s-1 .4-1 1v1zM51 0h-4c-.6 0-1 .4-1 1v4c0 .6.4 1 1 1h4c.6 0 1-.4 1-1V1c0-.6-.4-1-1-1zm-1 4h-2V2h2v2z"/>
	</symbol>

	<symbol id="icon-cloud-download" xmlns="http://www.w3.org/2000/svg" viewBox="0 0 74.7 63.2">
		<path d="M47.1 41.8h-5.5V32c0-.6-.4-1-1-1H29.7c-.6 0-1 .4-1 1v9.8H23c-1.1 0-2 .6-2.4 1.5-.4 1-.2 2.2.5 2.9l11.8 16 .1.1c.6.6 1.3.9 2.1.9s1.5-.3 2.1-.9L49 46.2c.7-.7.9-1.9.5-2.9s-1.2-1.5-2.4-1.5zm.5 3L35.7 60.9c-.3.3-.9.3-1.2 0L22.7 45l-.1-.1c-.1-.1-.2-.5-.1-.8.1-.1.1-.3.6-.3h6.1c.1.1.3.1.5.1.6 0 1-.4 1-1v-4.7h4.4c.6 0 1-.4 1-1s-.4-1-1-1h-4.4V33h8.9v9.9c0 .6.4 1 1 1 .1 0 .3 0 .4-.1h6.1c.5 0 .6.1.6.2.2.2.1.6-.1.8zm7-34.9c-2.5 0-4.8.5-7.1 1.3C44.5 4.6 37.9 0 30.3 0 19.9 0 11.4 8.5 11.4 18.9c0 .4 0 .9.1 1.3C4.9 21.8 0 27.7 0 34.7c0 8.2 6.7 14.9 14.9 14.9.6 0 1-.4 1-1s-.4-1-1-1C7.8 47.6 2 41.8 2 34.7c0-6 4.1-11.1 9.7-12.5.2 1.1.5 2.1.9 3.1-4.1 1.1-7.2 4.8-7.2 9.3 0 5.3 4.3 9.7 9.7 9.7.6 0 1.1-.3 1.1-.9 0-.6-.4-1-1-1-4.2 0-7.7-3.5-7.7-7.7 0-3.6 2.5-6.7 5.9-7.5.9 1.7 2 3.3 3.3 4.7.2.2.4.3.7.3.2 0 .5-.1.9-.2.4-.4.4-1 0-1.4-1.1-1.1-1.9-2.3-2.6-3.6 1.7.1 3.5.8 4.7 2 .4.3 1 .3 1.4-.1 0-.1.1-.1.1-.2.4-.4.4-1 0-1.4-1.3-1.4-2.3-3.1-2.8-4.9 1.7.6 3.3 1.5 4.6 2.7.4.3 1 .3 1.4-.1.3-.4.3-1-.1-1.4-1.8-1.7-4-2.8-6.3-3.4 0-.4-.1-.7-.1-1.1 0-6.5 5.3-11.8 11.8-11.8 5 0 9.3 3.1 11 7.5-1.8 1.6-3.3 3.5-4.5 5.8-.3.4-.1 1 .4 1.3.4.3 1 .1 1.3-.4.9-1.8 2-3.3 3.4-4.6.1.7.2 1.5.2 2.2 0 1.8-.3 3.7-.8 4.9-.3.5 0 1.1.5 1.3.5.3 1.1 0 1.3-.5.1-.4.3-.7.4-1.1.9-1.7 2.2-3.2 3.7-4.3-.1 2.5-.5 4.8-1.2 6.5-.3.5 0 1.1.5 1.3.5.3 1.1 0 1.3-.5.8-2.1 1.3-4.9 1.3-7.8v-.6c1.7-.8 3.6-1.3 5.6-1.3 7 0 12.7 5.7 12.7 12.7s-5.7 12.7-12.7 12.7c-.6 0-1 .4-1 1s.4 1 1 1c8.1 0 14.7-6.6 14.8-14.7C69.6 21.6 63 15 54.9 15c-2.1 0-4.1.4-5.9 1.2-.2-1.1-.4-2.2-.8-3.3 2-.7 4.1-1.2 6.4-1.2 10 0 18.1 8.1 18.1 18.1s-8.1 18.1-18.1 18.1c-.6 0-1 .4-1 1s.4 1 1 1c11.1 0 20.1-8.9 20.1-20 0-11-9-20-20.1-20zM18.1 25.5c-1-.3-2-.5-3-.5h-.4c-.4-1-.7-2.1-.9-3.2.4 0 .7-.1 1.1-.1.7 0 1.3.1 2 .2.2 1.3.7 2.5 1.2 3.6zM30.4 5.4c-7.6 0-13.8 6.2-13.8 13.8v.7c-.6-.1-1.1-.1-1.7-.1-.5 0-.9 0-1.4.1v-1C13.5 9.6 21.1 2 30.4 2c6.8 0 12.7 4.1 15.4 10-1 .5-1.9 1-2.8 1.7-2.1-4.9-7-8.3-12.6-8.3zm16.8 11.8c-1.1.7-2.1 1.5-3 2.5v-.4c0-1.3-.2-2.5-.5-3.7.9-.7 1.8-1.3 2.8-1.8.3 1 .6 2.2.7 3.4zM29.7 28.9h10.9c.5 0 1-.4 1-1s-.4-1-1-1H29.7c-.6 0-1 .4-1 1s.4 1 1 1z"/>
	</symbol>

	<symbol id="icon-lock" xmlns="http://www.w3.org/2000/svg" viewBox="0 0 50.1 62.1">
		<path d="M25 33.1c-2.9 0-5.2 2.3-5.2 5.2 0 1.7.7 3.2 1.9 4.3l-.9 5.2c0 .4 0 .7.2 1 .2.2.5.6.8.6h6.3c.3 0 .6-.4.8-.6.2-.3.3-.6.2-1l-.9-5.2c1.2-1.1 1.9-2.7 1.9-4.4.1-2.8-2.2-5.1-5.1-5.1zm1.6 8.2c-.4.3-.6.8-.5 1.3l.8 4.8h-3.8l.8-4.8c.1-.5-.1-.9-.5-1.2-1-.7-1.5-1.9-1.5-3.1 0-1.7 1.4-3.1 3.1-3.1s3.1 1.4 3.1 3.1c0 1.2-.6 2.3-1.5 3zm19.3-16.8h-4.2v-7.8c0-2.4-.6-4.8-1.6-7-3.9-8.4-13.8-12-22.1-8.1-5.9 2.7-9.6 8.6-9.6 15.1v7.8H4.2C2 24.4.1 26.2 0 28.5v29.3c0 2.3 1.8 4.2 4.2 4.3h41.7c2.3-.1 4.2-2 4.2-4.3V28.5c-.1-2.2-1.9-4-4.2-4zm-35.5-7.8c0-8.1 6.5-14.6 14.6-14.6 5.7 0 10.8 3.3 13.2 8.4.9 1.9 1.3 4 1.4 6.2v7.8h-4.2v-7.8c0-1.6-.4-3.1-1-4.5C32.7 8.5 29 6.1 25 6.1c-5.8 0-10.4 4.7-10.4 10.5v7.9h-4.2v-7.8zm22.9 0v7.8H16.7v-7.8c-.1-4.6 3.6-8.4 8.2-8.5h.1c3.2 0 6.2 1.9 7.5 4.8.5 1.2.8 2.5.8 3.7zm14.6 41c0 1.2-.9 2.1-2.1 2.2H4.1c-1.2-.1-2.1-1-2.1-2.2v-2h45.9v2zm0-23.8h-4.2c-.6 0-1 .5-1 1 0 .6.5 1 1 1h4.2v4.2h-6.3c-.6 0-1 .5-1 1 0 .6.5 1 1 1h6.3v4.2h-4.2c-.6 0-1 .5-1 1s.5 1 1 1h4.2v5.2H2.1v-5.2h4.2c.6 0 1-.5 1-1s-.5-1-1-1H2.1v-4.2h6.3c.6 0 1-.5 1-1 0-.6-.5-1-1-1H2.1V36h4.2c.6 0 1-.5 1-1 0-.6-.5-1-1-1H2.1v-5.3c0-1.1.9-2 2-2h41.8c1.1-.1 2 .8 2.1 1.9l-.1 5.3z"/>
	</symbol>

	<symbol id="icon-staging-laptops" xmlns="http://www.w3.org/2000/svg" viewBox="0 0 73.3 61.7">
		<path d="M72.5 48.8h-6.2V13.2c0-2.5-1.7-4.4-4-4.4H37.8V.9c0-.5-.4-.9-.9-.9s-.9.4-.9.9v5.5H11.9c-2.5 0-4.8 2-4.8 4.4v35.5H.9c-.5 0-.9.4-.9.9v2.3c0 .2.1.5.3.6l5.1 4.7c.2.1.4.2.6.2h30v5.8c0 .5.4.9.9.9s.9-.4.9-.9v-3.3h30.4c.2 0 .5-.1.6-.3l4.3-4.7c.1-.2.2-.4.2-.6v-2.3c0-.5-.3-.8-.8-.8zM36 53.3H6.4l-4.6-4.2V48h26.7l2.1 2.1c.2.2.4.3.6.3H36v2.9zm0-29.6h-1.4c-.5-.1-.9.3-.9.8s.4.9.9.9H36v1.8h-1.4c-.5 0-.9.3-.9.8s.4.9.9.9H36v1.9h-1.4c-.5-.1-.9.3-.9.8s.4.9.9.9H36v1.7h-1.3c-.5 0-.9.4-.9.9s.4.9.9.9H36v1.7h-1.4c-.5 0-.9.3-.9.8s.4.9.9.9H36v2.5H14.2c-.5 0-.9-.4-.9-.9V21H36v2.7zm0-4.4H13.4v-5.9c0-.5.4-.9.9-.9H36v6.8zm0-8.5H14.2c-1.4 0-2.5 1.2-2.5 2.6V41c0 1.4 1.2 2.6 2.6 2.6H36v5.1h-4.5l-2.1-2.1c-.2-.2-.4-.3-.6-.3h-20V10.8c0-1.5 1.6-2.7 3.1-2.7H36v2.7zm1.8 4.2h21.6c.5 0 .9.4.9.9v5.9H37.8V15zm0 26.8h10.9c.4.1.8-.3.8-.8s-.4-.9-.9-.9H37.8v-1.7h19.3c.5 0 .8-.4.8-.8 0-.5-.4-.9-.9-.9H37.8v-1.9H57c.4.1.8-.3.8-.8s-.4-.9-.9-.9H37.8v-1.8H57c.4.1.8-.3.8-.8s-.4-.9-.9-.9H37.8v-1.8H57c.4 0 .8-.4.8-.8 0-.5-.4-.9-.9-.9H37.8v-2.6h22.5v20c0 .5-.4.9-.9.9H37.8v-2.6zm0 4.3h21.6c1.4 0 2.6-1.2 2.6-2.6V15.9c0-1.4-1.2-2.6-2.6-2.6H37.8v-2.8h24.5c1.6 0 2.3 1.3 2.3 2.7v35.5H45.3c-.2 0-.4.1-.6.3l-2.1 2.1h-4.8v-5zm33.7 5.5l-3.8 4.2H37.8v-3h5.1c.2 0 .4-.1.6-.3l2.1-2.1h25.9v1.2z" />
		<circle cx="17.2" cy="16.1" r="1.5" />
		<circle cx="22.5" cy="16.1" r="1.5" />
		<circle cx="27.7" cy="16.1" r="1.5" />
		<path d="M16.6 39.4h14.6c.1-.1.2-.1.2-.2V24c-.1-.1-.1-.2-.2-.2H16c-.1.1-.2.1-.2.2v14.6c-.1.4.3.8.8.8zm2.1-1.7l4.9-4.9 4.9 4.9h-9.8zm11.1-1.3l-4.9-4.9 4.9-4.9v9.8zm-1.2-11.1l-4.9 4.9-4.9-4.9h9.8zm-11.1 1.3l4.9 4.9-4.9 4.9v-9.8z" />
	</symbol>

	<symbol id="icon-speech-love" xmlns="http://www.w3.org/2000/svg" viewBox="0 0 61.2 56.7">
		<path d="M15.2 26.6h-.1c-.3 0-.5-.2-.9-.4C12.4 25 11 23.6 10 22c-.1-.1-.1-.1-.1-.2-.1-.2-.1-.2-.2-.3-.8-1.8-.7-4.1 1.2-5.1 1.4-.8 3.2-.2 4.4.7 1.2-.9 3-1.5 4.4-.7 1.8 1 2 3.3 1.2 5.1 0 .1-.1.2-.2.3-.1.2-.1.2-.2.3-1 1.7-2.4 3-4.2 4.2-.4.3-.7.4-.9.4-.1-.2-.1-.1-.2-.1zm-3.6-5.8c.9 1.5 2 2.6 3.6 3.7 1.6-1.1 2.7-2.2 3.6-3.6.1-.1.1-.1.1-.2s.1-.1.1-.1c.3-.8.5-2.1-.3-2.6-.7-.4-2 .2-2.7.9-.2.2-.5.3-.8.3-.3 0-.6-.1-.8-.3-.6-.7-2-1.3-2.7-.9-.9.5-.7 1.8-.3 2.6.1-.1.1 0 .2.2 0-.1 0-.1 0 0z" class="st0"/>
		<path d="M9.3 56.7c-.1 0-.3 0-.4-.1-.4-.2-.6-.5-.6-.9l-.2-14.2H4.3C2 41.5 0 39.6 0 37.2v-33C0 1.9 1.9 0 4.3 0h52.6c2.3 0 4.3 1.9 4.3 4.3v33c0 2.3-1.9 4.3-4.3 4.3H25.4L10 56.4c-.2.2-.4.3-.7.3zM4.3 2C3 2 2 3 2 4.3v33c0 1.2 1 2.3 2.3 2.3h4.9c.5 0 1 .4 1 1l.2 12.9 14-13.6c.2-.2.4-.3.7-.3H57c1.2 0 2.3-1 2.3-2.3v-33c0-1.2-1-2.3-2.3-2.3H4.3z" class="st0"/>
		<path d="M30.6 26.6h-.1c-.3 0-.6-.2-.9-.4-1.8-1.2-3.2-2.6-4.2-4.2-.1-.1-.1-.1-.1-.2-.1-.2-.1-.2-.2-.3-.8-1.8-.7-4.1 1.2-5.1 1.4-.8 3.2-.2 4.4.7 1.2-.9 3-1.5 4.4-.7 1.8 1 2 3.3 1.2 5.1 0 .1-.1.2-.2.3-.1.2-.1.2-.2.3-1 1.7-2.4 3-4.2 4.2-.4.3-.7.4-.9.4-.1-.2-.1-.1-.2-.1zM27 20.8c.9 1.5 2 2.6 3.6 3.7 1.6-1.1 2.7-2.2 3.6-3.6.1-.1.1-.1.1-.2s.1-.1.1-.1c.3-.8.5-2.1-.3-2.6-.7-.4-2 .2-2.7.9-.2.2-.5.3-.8.3-.3 0-.6-.1-.8-.3-.6-.7-2-1.3-2.7-.9-.9.5-.7 1.8-.3 2.6.1-.1.1 0 .2.2 0-.1 0-.1 0 0zM46 26.6c-.4 0-.6-.2-1-.4-1.8-1.2-3.2-2.6-4.2-4.2-.1-.1-.1-.1-.1-.2-.1-.2-.1-.2-.2-.3-.8-1.8-.7-4.1 1.2-5.1 1.4-.8 3.2-.2 4.4.7 1.2-.9 3-1.5 4.4-.7 1.8 1 2 3.3 1.2 5.1 0 .1-.1.2-.2.3-.1.2-.1.2-.2.3-1 1.7-2.4 3-4.2 4.2-.4.3-.7.4-.9.4-.1-.2-.1-.1-.2-.1zm-3.6-5.8c.9 1.5 2 2.6 3.6 3.7 1.6-1.1 2.7-2.2 3.6-3.6.1-.1.1-.1.1-.2s0-.1.1-.1c.3-.8.5-2.1-.3-2.6-.7-.4-2 .2-2.7.9-.2.2-.5.3-.8.3-.3 0-.6-.1-.8-.3-.6-.7-2-1.3-2.7-.9-.9.5-.7 1.8-.3 2.6.1-.1.1 0 .2.2 0-.1 0-.1 0 0z" class="st0"/>
	</symbol>

	<!-- Circle YouTube Icon -->
	<symbol id="icon-circle-youtube" viewBox="0 0 40 40">
		<path d="M20 0C9 0 0 9 0 20s9 20 20 20 20-9 20-20S31 0 20 0zm13 22.2c0 2.8-.5 4.4-1.5 5.4S28.9 29 26 29H14c-5.9 0-7-2.3-7-6.8v-4.4c0-2.3 0-4 .9-5.1.9-1.2 2.7-1.7 6.1-1.7h12c3.3 0 5 .4 6 1.5.9 1.1 1 2.8 1 5.2v4.5z"/><path d="M23.7 19.1l-5.5-2.8c-.3-.1-.6-.1-.8 0-.3.1-.4.4-.4.7v5.6c0 .3.2.6.4.7.1.1.3.1.4.1.1 0 .3 0 .4-.1l5.5-2.8c.3-.1.5-.4.5-.7-.1-.2-.2-.5-.5-.7z"/><path fill="#fff" d="M26 11H14c-3.4 0-5.1.5-6.1 1.6-.9 1.2-.9 2.9-.9 5.2v4.4c0 4.5 1.1 6.8 7 6.8h12c2.9 0 4.5-.4 5.5-1.4 1.1-1 1.5-2.6 1.5-5.4v-4.4c0-2.5-.1-4.1-1-5.2-1-1.2-2.7-1.6-6-1.6zm-2.3 9.6l-5.5 2.8c-.1.1-.3.1-.4.1-.2 0-.3 0-.4-.1-.2-.2-.4-.4-.4-.7v-5.6c0-.3.2-.6.4-.7.3-.1.6-.2.8 0l5.5 2.8c.3.1.5.4.5.7-.1.3-.2.6-.5.7z"/>
	</symbol>

	<!-- Circle Instagram Icon -->
	<symbol id="icon-circle-instagram" xmlns="http://www.w3.org/2000/svg" viewBox="0 0 40 40">
		<circle cx="20" cy="20" r="20" /><path fill="#fff" d="M28.3 8H11.9c-2.1 0-3.8 1.7-3.8 3.8v16.4c0 2.1 1.7 3.8 3.8 3.8h16.4c2.1 0 3.8-1.7 3.8-3.8V11.8C32 9.7 30.3 8 28.3 8zm-2.6 2.8h3c.3 0 .5.2.5.5v3c0 .3-.2.5-.5.5h-3c-.3 0-.5-.2-.5-.5v-3c0-.3.2-.5.5-.5zm-9.3 7.1c.1-.2.2-.3.3-.4.8-1.1 2-1.8 3.4-1.8s2.7.7 3.4 1.8c.1.1.2.3.3.4.3.6.6 1.3.6 2.1 0 2.3-1.9 4.2-4.2 4.2S16 22.3 16 20c-.2-.8 0-1.5.4-2.1zm13.3 9.5c0 1.3-1 2.3-2.3 2.3H12.7c-1.3 0-2.3-1-2.3-2.3v-9.8H14c-.1.2-.1.5-.2.7-.2.6-.3 1.2-.3 1.8 0 3.6 2.9 6.6 6.5 6.6s6.6-2.9 6.6-6.6c0-.6-.1-1.2-.3-1.8-.1-.2-.1-.5-.2-.7h3.6v9.8z"/>
	</symbol>

	<symbol id="icon-circle-facebook" xmlns="http://www.w3.org/2000/svg" viewBox="0 0 40 40">
		<circle cx="20" cy="20" r="20" /><path fill="#fff" d="M25 20.8h-3.6v13.1H16V20.8h-2.6v-4.6H16v-3c0-2.1 1-5.4 5.4-5.4h4v4.5h-2.9c-.5 0-1.2.2-1.2 1.2v2.7h4.1l-.4 4.6z"/>
	</symbol>

	<symbol id="icon-circle-twitter" xmlns="http://www.w3.org/2000/svg" viewBox="0 0 39.4 39.4">
		<circle cx="19.7" cy="19.7" r="19.7" /><path fill="#fff" d="M31.7 14.1c-.8.4-1.7.6-2.7.7 1-.6 1.7-1.5 2.1-2.6-.9.6-1.9.9-3 1.1-.8-.9-2.1-1.5-3.4-1.5-2.6 0-4.7 2.1-4.7 4.7 0 .4 0 .7.1 1.1-3.9-.2-7.4-2.1-9.7-4.9-.4.7-.6 1.5-.6 2.4 0 1.6.8 3.1 2.1 3.9-.8 0-1.5-.2-2.1-.6v.1c0 2.3 1.6 4.2 3.8 4.6-.4.1-.8.1-1.2.1-.3 0-.6 0-.9-.1.6 1.9 2.3 3.2 4.4 3.2-1.6 1.3-3.6 2-5.8 2-.4 0-.7 0-1.1-.1 2.1 1.3 4.5 2.1 7.2 2.1 8.6 0 13.4-7.2 13.4-13.4v-.6c.7-.4 1.5-1.2 2.1-2.2z"/>
	</symbol>

</svg>