<svg width="228" height="145" viewBox="0 0 228 145" fill="none" xmlns="http://www.w3.org/2000/svg">
<rect width="105" height="65.7576" rx="2.12121" fill="white"/>
<circle cx="77.4242" cy="21.2121" r="9.54545" fill="#7B4FA7"/>
<circle cx="77.4242" cy="44.5455" r="9.54545" fill="#EB77CA"/>
<path d="M50.2045 26.2879H49.4091C48.9616 26.2879 48.6136 26.6856 48.6136 27.0834V27.7297C47.5199 26.8845 46.1278 26.2879 44.6364 26.2879C41.1065 26.2879 38.2727 29.1714 38.2727 32.6515V34.2424C38.2727 37.7723 41.1065 40.6061 44.6364 40.6061C46.1278 40.6061 47.5199 40.0592 48.6136 39.214V39.8106C48.6136 40.2581 48.9616 40.6061 49.4091 40.6061H50.2045C50.6023 40.6061 51 40.2581 51 39.8106V27.0834C51 26.6856 50.6023 26.2879 50.2045 26.2879ZM48.6136 34.2424C48.6136 36.4797 46.8239 38.2197 44.6364 38.2197C42.3992 38.2197 40.6591 36.4797 40.6591 34.2424V32.6515C40.6591 30.464 42.3992 28.6743 44.6364 28.6743C46.8239 28.6743 48.6136 30.464 48.6136 32.6515V34.2424ZM29.7216 22.062C29.6222 21.7638 29.3239 21.5152 28.9759 21.5152H26.8381C26.4901 21.5152 26.1918 21.7638 26.0923 22.062L19.2315 39.562C19.1818 39.6615 19.1321 39.7609 19.1321 39.8106C19.1321 40.2581 19.5298 40.6061 19.9276 40.6061C19.9276 40.6061 19.9276 40.6061 19.9773 40.6061H20.8224C21.1705 40.6061 21.419 40.4072 21.5682 40.1089L23.5568 35.0379H32.2571L34.2457 40.1089C34.3949 40.4072 34.6932 40.6558 34.9915 40.6558V40.6061H35.8864C36.2841 40.6061 36.6818 40.2581 36.6818 39.8106C36.6818 39.7609 36.6321 39.6615 36.6321 39.562L29.7216 22.062ZM24.5014 32.6515L27.9318 24.001L31.3125 32.6515H24.5014Z" fill="#494949"/>
<rect y="79" width="105" height="65.7576" rx="2.12121" fill="white"/>
<circle cx="77.4242" cy="100.212" r="9.54545" fill="#79BC6E"/>
<circle cx="77.4242" cy="123.545" r="9.54545" fill="#FA8F8F"/>
<path d="M50.2045 105.288H49.4091C48.9616 105.288 48.6136 105.686 48.6136 106.083V106.73C47.5199 105.884 46.1278 105.288 44.6364 105.288C41.1065 105.288 38.2727 108.171 38.2727 111.652V113.242C38.2727 116.772 41.1065 119.606 44.6364 119.606C46.1278 119.606 47.5199 119.059 48.6136 118.214V118.811C48.6136 119.258 48.9616 119.606 49.4091 119.606H50.2045C50.6023 119.606 51 119.258 51 118.811V106.083C51 105.686 50.6023 105.288 50.2045 105.288ZM48.6136 113.242C48.6136 115.48 46.8239 117.22 44.6364 117.22C42.3992 117.22 40.6591 115.48 40.6591 113.242V111.652C40.6591 109.464 42.3992 107.674 44.6364 107.674C46.8239 107.674 48.6136 109.464 48.6136 111.652V113.242ZM29.7216 101.062C29.6222 100.764 29.3239 100.515 28.9759 100.515H26.8381C26.4901 100.515 26.1918 100.764 26.0923 101.062L19.2315 118.562C19.1818 118.661 19.1321 118.761 19.1321 118.811C19.1321 119.258 19.5298 119.606 19.9276 119.606C19.9276 119.606 19.9276 119.606 19.9773 119.606H20.8224C21.1705 119.606 21.419 119.407 21.5682 119.109L23.5568 114.038H32.2571L34.2457 119.109C34.3949 119.407 34.6932 119.656 34.9915 119.656V119.606H35.8864C36.2841 119.606 36.6818 119.258 36.6818 118.811C36.6818 118.761 36.6321 118.661 36.6321 118.562L29.7216 101.062ZM24.5014 111.652L27.9318 103.001L31.3125 111.652H24.5014Z" fill="#494949"/>
<rect x="123" width="105" height="65.7576" rx="2.12121" fill="white"/>
<circle cx="200.424" cy="21.2121" r="9.54545" fill="#FFBE18"/>
<circle cx="200.424" cy="44.5455" r="9.54545" fill="#40372B"/>
<path d="M173.205 26.2879H172.409C171.962 26.2879 171.614 26.6856 171.614 27.0834V27.7297C170.52 26.8845 169.128 26.2879 167.636 26.2879C164.107 26.2879 161.273 29.1714 161.273 32.6515V34.2424C161.273 37.7723 164.107 40.6061 167.636 40.6061C169.128 40.6061 170.52 40.0592 171.614 39.214V39.8106C171.614 40.2581 171.962 40.6061 172.409 40.6061H173.205C173.602 40.6061 174 40.2581 174 39.8106V27.0834C174 26.6856 173.602 26.2879 173.205 26.2879ZM171.614 34.2424C171.614 36.4797 169.824 38.2197 167.636 38.2197C165.399 38.2197 163.659 36.4797 163.659 34.2424V32.6515C163.659 30.464 165.399 28.6743 167.636 28.6743C169.824 28.6743 171.614 30.464 171.614 32.6515V34.2424ZM152.722 22.062C152.622 21.7638 152.324 21.5152 151.976 21.5152H149.838C149.49 21.5152 149.192 21.7638 149.092 22.062L142.232 39.562C142.182 39.6615 142.132 39.7609 142.132 39.8106C142.132 40.2581 142.53 40.6061 142.928 40.6061C142.928 40.6061 142.928 40.6061 142.977 40.6061H143.822C144.17 40.6061 144.419 40.4072 144.568 40.1089L146.557 35.0379H155.257L157.246 40.1089C157.395 40.4072 157.693 40.6558 157.991 40.6558V40.6061H158.886C159.284 40.6061 159.682 40.2581 159.682 39.8106C159.682 39.7609 159.632 39.6615 159.632 39.562L152.722 22.062ZM147.501 32.6515L150.932 24.001L154.313 32.6515H147.501Z" fill="#494949"/>
<rect x="123" y="79" width="105" height="65.7576" rx="2.12121" fill="white"/>
<circle cx="200.424" cy="100.212" r="9.54545" fill="#45AAE3"/>
<circle cx="200.424" cy="123.545" r="9.54545" fill="#F27272"/>
<path d="M173.205 105.288H172.409C171.962 105.288 171.614 105.686 171.614 106.083V106.73C170.52 105.884 169.128 105.288 167.636 105.288C164.107 105.288 161.273 108.171 161.273 111.652V113.242C161.273 116.772 164.107 119.606 167.636 119.606C169.128 119.606 170.52 119.059 171.614 118.214V118.811C171.614 119.258 171.962 119.606 172.409 119.606H173.205C173.602 119.606 174 119.258 174 118.811V106.083C174 105.686 173.602 105.288 173.205 105.288ZM171.614 113.242C171.614 115.48 169.824 117.22 167.636 117.22C165.399 117.22 163.659 115.48 163.659 113.242V111.652C163.659 109.464 165.399 107.674 167.636 107.674C169.824 107.674 171.614 109.464 171.614 111.652V113.242ZM152.722 101.062C152.622 100.764 152.324 100.515 151.976 100.515H149.838C149.49 100.515 149.192 100.764 149.092 101.062L142.232 118.562C142.182 118.661 142.132 118.761 142.132 118.811C142.132 119.258 142.53 119.606 142.928 119.606C142.928 119.606 142.928 119.606 142.977 119.606H143.822C144.17 119.606 144.419 119.407 144.568 119.109L146.557 114.038H155.257L157.246 119.109C157.395 119.407 157.693 119.656 157.991 119.656V119.606H158.886C159.284 119.606 159.682 119.258 159.682 118.811C159.682 118.761 159.632 118.661 159.632 118.562L152.722 101.062ZM147.501 111.652L150.932 103.001L154.313 111.652H147.501Z" fill="#494949"/>
</svg>
