<svg width="272" height="171" viewBox="0 0 272 171" fill="none" xmlns="http://www.w3.org/2000/svg">
<path d="M0 2C0 0.895433 0.895431 0 2 0H270C271.105 0 272 0.895431 272 2V171H0V2Z" fill="white"/>
<rect x="24" y="111" width="103" height="41" rx="2" fill="#EDEDED"/>
<rect x="62" y="126" width="41" height="4" rx="2" fill="#D0D0D0"/>
<rect x="62" y="134" width="23" height="4" rx="2" fill="#D0D0D0"/>
<circle cx="45" cy="131" r="11" fill="#7B4FA7"/>
<rect x="139" y="111" width="103" height="41" rx="2" fill="#EDEDED"/>
<rect x="177" y="126" width="41" height="4" rx="2" fill="#D0D0D0"/>
<rect x="177" y="134" width="23" height="4" rx="2" fill="#D0D0D0"/>
<circle cx="160" cy="131" r="11" fill="#EB77CA"/>
<rect x="24" y="24" width="76" height="7" rx="3.5" fill="#E8E8E8"/>
<path d="M240.625 33.75H232.375C232.062 33.75 231.797 33.6406 231.578 33.4219C231.359 33.2031 231.25 32.9375 231.25 32.625V24.375C231.25 24.0625 231.359 23.7969 231.578 23.5781C231.797 23.3594 232.062 23.25 232.375 23.25H240.625C240.938 23.25 241.203 23.3594 241.422 23.5781C241.641 23.7969 241.75 24.0625 241.75 24.375V32.625C241.75 32.9375 241.641 33.2031 241.422 33.4219C241.203 33.6406 240.938 33.75 240.625 33.75ZM235.82 31.4531L240.133 27.1406C240.32 26.9688 240.32 26.7891 240.133 26.6016L239.617 26.0859C239.43 25.8984 239.25 25.8984 239.078 26.0859L235.562 29.6016L233.922 27.9609C233.75 27.7734 233.57 27.7734 233.383 27.9609L232.867 28.4766C232.68 28.6641 232.68 28.8438 232.867 29.0156L235.305 31.4531C235.477 31.625 235.648 31.625 235.82 31.4531Z" fill="#2F7DB9"/>
<rect x="24" y="35" width="23" height="4" rx="2" fill="#E8E8E8"/>
<rect x="24" y="52" width="218" height="1" rx="0.5" fill="#F0F0F0"/>
<rect x="24" y="63" width="76" height="7" rx="3.5" fill="#E8E8E8"/>
<path d="M240.625 72.75H232.375C232.062 72.75 231.797 72.6406 231.578 72.4219C231.359 72.2031 231.25 71.9375 231.25 71.625V63.375C231.25 63.0625 231.359 62.7969 231.578 62.5781C231.797 62.3594 232.062 62.25 232.375 62.25H240.625C240.938 62.25 241.203 62.3594 241.422 62.5781C241.641 62.7969 241.75 63.0625 241.75 63.375V71.625C241.75 71.9375 241.641 72.2031 241.422 72.4219C241.203 72.6406 240.938 72.75 240.625 72.75ZM235.82 70.4531L240.133 66.1406C240.32 65.9688 240.32 65.7891 240.133 65.6016L239.617 65.0859C239.43 64.8984 239.25 64.8984 239.078 65.0859L235.562 68.6016L233.922 66.9609C233.75 66.7734 233.57 66.7734 233.383 66.9609L232.867 67.4766C232.68 67.6641 232.68 67.8438 232.867 68.0156L235.305 70.4531C235.477 70.625 235.648 70.625 235.82 70.4531Z" fill="#2F7DB9"/>
<rect x="24" y="74" width="23" height="4" rx="2" fill="#E8E8E8"/>
<rect x="24" y="91" width="218" height="1" rx="0.5" fill="#F0F0F0"/>
</svg>
