<svg width="272" height="171" viewBox="0 0 272 171" fill="none" xmlns="http://www.w3.org/2000/svg">
<path d="M0 2C0 0.895433 0.895431 0 2 0H270C271.105 0 272 0.895431 272 2V171H0V2Z" fill="white"/>
<rect x="14.25" y="16.25" width="243.5" height="55.5" rx="1.75" fill="#D2E9FB" stroke="#5EB8FF" stroke-width="0.5"/>
<path d="M107.885 47V40.4545H112.142V41.4485H109.071V43.2255H111.922V44.2195H109.071V46.006H112.168V47H107.885ZM115.123 47.0863C114.737 47.0863 114.392 46.9872 114.087 46.7891C113.783 46.5909 113.542 46.3033 113.365 45.9261C113.188 45.549 113.1 45.0909 113.1 44.5518C113.1 44.0064 113.189 43.5462 113.368 43.1712C113.549 42.794 113.793 42.5096 114.1 42.3178C114.407 42.1239 114.749 42.027 115.126 42.027C115.414 42.027 115.65 42.076 115.835 42.174C116.021 42.2699 116.168 42.386 116.277 42.5224C116.385 42.6566 116.469 42.7834 116.529 42.9027H116.577V40.4545H117.737V47H116.599V46.2266H116.529C116.469 46.3459 116.383 46.4727 116.27 46.6069C116.157 46.739 116.008 46.8519 115.823 46.9457C115.637 47.0394 115.404 47.0863 115.123 47.0863ZM115.446 46.1371C115.691 46.1371 115.899 46.071 116.072 45.9389C116.245 45.8047 116.376 45.6183 116.465 45.3796C116.555 45.141 116.599 44.8629 116.599 44.5455C116.599 44.228 116.555 43.9521 116.465 43.7177C116.378 43.4833 116.248 43.3011 116.075 43.1712C115.905 43.0412 115.695 42.9762 115.446 42.9762C115.188 42.9762 114.973 43.0433 114.8 43.1776C114.627 43.3118 114.497 43.4972 114.41 43.7337C114.323 43.9702 114.279 44.2408 114.279 44.5455C114.279 44.8523 114.323 45.1261 114.41 45.3668C114.5 45.6055 114.631 45.794 114.803 45.9325C114.978 46.0689 115.192 46.1371 115.446 46.1371ZM118.97 47V42.0909H120.127V47H118.97ZM119.552 41.3942C119.368 41.3942 119.211 41.3335 119.079 41.212C118.947 41.0884 118.88 40.9403 118.88 40.7678C118.88 40.593 118.947 40.445 119.079 40.3235C119.211 40.1999 119.368 40.1381 119.552 40.1381C119.737 40.1381 119.895 40.1999 120.025 40.3235C120.157 40.445 120.223 40.593 120.223 40.7678C120.223 40.9403 120.157 41.0884 120.025 41.212C119.895 41.3335 119.737 41.3942 119.552 41.3942ZM123.768 42.0909V42.9858H120.946V42.0909H123.768ZM121.643 40.9148H122.8V45.5234C122.8 45.679 122.823 45.7983 122.87 45.8814C122.919 45.9624 122.983 46.0178 123.062 46.0476C123.14 46.0774 123.228 46.0923 123.324 46.0923C123.396 46.0923 123.462 46.087 123.522 46.0763C123.584 46.0657 123.631 46.0561 123.663 46.0476L123.857 46.9521C123.796 46.9734 123.707 46.9968 123.592 47.0224C123.479 47.0479 123.341 47.0629 123.177 47.0671C122.887 47.0756 122.626 47.032 122.394 46.9361C122.161 46.8381 121.977 46.6868 121.841 46.4822C121.707 46.2777 121.64 46.022 121.643 45.7152V40.9148ZM127.019 47V40.4545H128.205V43.2255H131.238V40.4545H132.427V47H131.238V44.2195H128.205V47H127.019ZM135.839 47.0959C135.346 47.0959 134.921 46.9936 134.563 46.7891C134.208 46.5824 133.934 46.2905 133.742 45.9134C133.55 45.5341 133.454 45.0877 133.454 44.5742C133.454 44.0692 133.55 43.6261 133.742 43.2447C133.936 42.8612 134.206 42.5629 134.554 42.3498C134.901 42.1346 135.309 42.027 135.778 42.027C136.08 42.027 136.366 42.076 136.634 42.174C136.905 42.2699 137.144 42.419 137.35 42.6214C137.559 42.8239 137.723 43.0817 137.842 43.3949C137.962 43.706 138.021 44.0767 138.021 44.5071V44.8619H133.998V44.082H136.912C136.91 43.8604 136.862 43.6634 136.769 43.4908C136.675 43.3161 136.544 43.1786 136.375 43.0785C136.209 42.9783 136.015 42.9283 135.794 42.9283C135.557 42.9283 135.35 42.9858 135.171 43.1009C134.992 43.2138 134.852 43.3629 134.752 43.5483C134.654 43.7315 134.604 43.9329 134.602 44.1523V44.8331C134.602 45.1186 134.654 45.3636 134.758 45.5682C134.863 45.7706 135.009 45.9261 135.196 46.0348C135.384 46.1413 135.603 46.1946 135.855 46.1946C136.023 46.1946 136.175 46.1712 136.312 46.1243C136.448 46.0753 136.566 46.0039 136.666 45.9102C136.766 45.8164 136.842 45.7003 136.893 45.5618L137.973 45.6832C137.905 45.9687 137.775 46.218 137.584 46.4311C137.394 46.642 137.151 46.8061 136.855 46.9233C136.559 47.0384 136.22 47.0959 135.839 47.0959ZM140.413 47.0991C140.102 47.0991 139.822 47.0437 139.572 46.9329C139.325 46.82 139.129 46.6538 138.984 46.4343C138.841 46.2148 138.77 45.9442 138.77 45.6225C138.77 45.3455 138.821 45.1165 138.924 44.9354C139.026 44.7543 139.165 44.6094 139.342 44.5007C139.519 44.392 139.718 44.31 139.94 44.2546C140.164 44.1971 140.395 44.1555 140.633 44.13C140.921 44.1001 141.154 44.0735 141.333 44.0501C141.512 44.0245 141.642 43.9862 141.723 43.935C141.806 43.8817 141.848 43.7997 141.848 43.6889V43.6697C141.848 43.429 141.777 43.2425 141.634 43.1104C141.491 42.9783 141.285 42.9123 141.017 42.9123C140.734 42.9123 140.509 42.9741 140.343 43.0977C140.178 43.2212 140.068 43.3672 140.01 43.5355L138.93 43.3821C139.015 43.0838 139.156 42.8345 139.352 42.6342C139.548 42.4318 139.788 42.2805 140.071 42.1804C140.354 42.0781 140.667 42.027 141.011 42.027C141.247 42.027 141.482 42.0547 141.717 42.1101C141.951 42.1655 142.165 42.2571 142.359 42.3849C142.553 42.5107 142.709 42.6822 142.826 42.8995C142.945 43.1168 143.005 43.3885 143.005 43.7145V47H141.893V46.3256H141.854C141.784 46.462 141.685 46.5898 141.557 46.7092C141.431 46.8263 141.273 46.9212 141.081 46.9936C140.891 47.0639 140.669 47.0991 140.413 47.0991ZM140.713 46.2489C140.946 46.2489 141.147 46.2031 141.317 46.1115C141.488 46.0178 141.619 45.8942 141.71 45.7408C141.804 45.5874 141.851 45.4201 141.851 45.239V44.6605C141.815 44.6903 141.753 44.718 141.666 44.7436C141.58 44.7692 141.485 44.7915 141.378 44.8107C141.272 44.8299 141.166 44.8469 141.062 44.8619C140.957 44.8768 140.867 44.8896 140.79 44.9002C140.617 44.9237 140.463 44.962 140.327 45.0153C140.19 45.0685 140.083 45.1431 140.004 45.239C139.925 45.3327 139.886 45.4542 139.886 45.6033C139.886 45.8164 139.963 45.9773 140.119 46.0859C140.274 46.1946 140.473 46.2489 140.713 46.2489ZM145.99 47.0863C145.604 47.0863 145.259 46.9872 144.954 46.7891C144.65 46.5909 144.409 46.3033 144.232 45.9261C144.055 45.549 143.967 45.0909 143.967 44.5518C143.967 44.0064 144.056 43.5462 144.235 43.1712C144.416 42.794 144.66 42.5096 144.967 42.3178C145.274 42.1239 145.616 42.027 145.993 42.027C146.281 42.027 146.517 42.076 146.703 42.174C146.888 42.2699 147.035 42.386 147.144 42.5224C147.252 42.6566 147.337 42.7834 147.396 42.9027H147.444V40.4545H148.604V47H147.466V46.2266H147.396C147.337 46.3459 147.25 46.4727 147.137 46.6069C147.024 46.739 146.875 46.8519 146.69 46.9457C146.504 47.0394 146.271 47.0863 145.99 47.0863ZM146.313 46.1371C146.558 46.1371 146.767 46.071 146.939 45.9389C147.112 45.8047 147.243 45.6183 147.332 45.3796C147.422 45.141 147.466 44.8629 147.466 44.5455C147.466 44.228 147.422 43.9521 147.332 43.7177C147.245 43.4833 147.115 43.3011 146.942 43.1712C146.772 43.0412 146.562 42.9762 146.313 42.9762C146.055 42.9762 145.84 43.0433 145.667 43.1776C145.495 43.3118 145.365 43.4972 145.277 43.7337C145.19 43.9702 145.146 44.2408 145.146 44.5455C145.146 44.8523 145.19 45.1261 145.277 45.3668C145.367 45.6055 145.498 45.794 145.67 45.9325C145.845 46.0689 146.059 46.1371 146.313 46.1371ZM152.01 47.0959C151.518 47.0959 151.093 46.9936 150.735 46.7891C150.379 46.5824 150.106 46.2905 149.914 45.9134C149.722 45.5341 149.626 45.0877 149.626 44.5742C149.626 44.0692 149.722 43.6261 149.914 43.2447C150.108 42.8612 150.378 42.5629 150.726 42.3498C151.073 42.1346 151.481 42.027 151.95 42.027C152.252 42.027 152.538 42.076 152.806 42.174C153.077 42.2699 153.315 42.419 153.522 42.6214C153.731 42.8239 153.895 43.0817 154.014 43.3949C154.134 43.706 154.193 44.0767 154.193 44.5071V44.8619H150.17V44.082H153.084C153.082 43.8604 153.034 43.6634 152.94 43.4908C152.847 43.3161 152.716 43.1786 152.547 43.0785C152.381 42.9783 152.187 42.9283 151.966 42.9283C151.729 42.9283 151.521 42.9858 151.342 43.1009C151.163 43.2138 151.024 43.3629 150.924 43.5483C150.826 43.7315 150.776 43.9329 150.774 44.1523V44.8331C150.774 45.1186 150.826 45.3636 150.93 45.5682C151.035 45.7706 151.181 45.9261 151.368 46.0348C151.556 46.1413 151.775 46.1946 152.026 46.1946C152.195 46.1946 152.347 46.1712 152.483 46.1243C152.62 46.0753 152.738 46.0039 152.838 45.9102C152.938 45.8164 153.014 45.7003 153.065 45.5618L154.145 45.6832C154.077 45.9687 153.947 46.218 153.755 46.4311C153.566 46.642 153.323 46.8061 153.027 46.9233C152.731 47.0384 152.392 47.0959 152.01 47.0959ZM155.172 47V42.0909H156.294V42.9091H156.345C156.435 42.6257 156.588 42.4073 156.805 42.2539C157.025 42.0984 157.275 42.0206 157.556 42.0206C157.62 42.0206 157.692 42.0238 157.77 42.0302C157.851 42.0344 157.919 42.0419 157.972 42.0526V43.1168C157.923 43.0998 157.845 43.0849 157.739 43.0721C157.634 43.0572 157.533 43.0497 157.435 43.0497C157.224 43.0497 157.034 43.0955 156.866 43.1871C156.7 43.2766 156.569 43.4013 156.473 43.5611C156.377 43.7209 156.329 43.9052 156.329 44.114V47H155.172ZM161.865 47H160.599L162.903 40.4545H164.367L166.675 47H165.409L163.661 41.7969H163.61L161.865 47ZM161.906 44.4336H165.358V45.386H161.906V44.4336ZM167.486 47V42.0909H168.607V42.9091H168.659C168.748 42.6257 168.901 42.4073 169.119 42.2539C169.338 42.0984 169.589 42.0206 169.87 42.0206C169.934 42.0206 170.005 42.0238 170.084 42.0302C170.165 42.0344 170.232 42.0419 170.285 42.0526V43.1168C170.236 43.0998 170.159 43.0849 170.052 43.0721C169.948 43.0572 169.846 43.0497 169.748 43.0497C169.537 43.0497 169.348 43.0955 169.179 43.1871C169.013 43.2766 168.882 43.4013 168.786 43.5611C168.69 43.7209 168.643 43.9052 168.643 44.114V47H167.486ZM173.025 47.0959C172.533 47.0959 172.108 46.9936 171.75 46.7891C171.394 46.5824 171.12 46.2905 170.928 45.9134C170.737 45.5341 170.641 45.0877 170.641 44.5742C170.641 44.0692 170.737 43.6261 170.928 43.2447C171.122 42.8612 171.393 42.5629 171.74 42.3498C172.088 42.1346 172.496 42.027 172.964 42.027C173.267 42.027 173.552 42.076 173.821 42.174C174.091 42.2699 174.33 42.419 174.537 42.6214C174.746 42.8239 174.91 43.0817 175.029 43.3949C175.148 43.706 175.208 44.0767 175.208 44.5071V44.8619H171.184V44.082H174.099C174.097 43.8604 174.049 43.6634 173.955 43.4908C173.861 43.3161 173.73 43.1786 173.562 43.0785C173.396 42.9783 173.202 42.9283 172.98 42.9283C172.744 42.9283 172.536 42.9858 172.357 43.1009C172.178 43.2138 172.039 43.3629 171.938 43.5483C171.84 43.7315 171.79 43.9329 171.788 44.1523V44.8331C171.788 45.1186 171.84 45.3636 171.945 45.5682C172.049 45.7706 172.195 45.9261 172.383 46.0348C172.57 46.1413 172.79 46.1946 173.041 46.1946C173.209 46.1946 173.362 46.1712 173.498 46.1243C173.634 46.0753 173.753 46.0039 173.853 45.9102C173.953 45.8164 174.029 45.7003 174.08 45.5618L175.16 45.6832C175.092 45.9687 174.962 46.218 174.77 46.4311C174.58 46.642 174.338 46.8061 174.041 46.9233C173.745 47.0384 173.406 47.0959 173.025 47.0959ZM177.599 47.0991C177.288 47.0991 177.008 47.0437 176.759 46.9329C176.512 46.82 176.316 46.6538 176.171 46.4343C176.028 46.2148 175.957 45.9442 175.957 45.6225C175.957 45.3455 176.008 45.1165 176.11 44.9354C176.212 44.7543 176.352 44.6094 176.529 44.5007C176.706 44.392 176.905 44.31 177.126 44.2546C177.35 44.1971 177.581 44.1555 177.82 44.13C178.108 44.1001 178.341 44.0735 178.52 44.0501C178.699 44.0245 178.829 43.9862 178.91 43.935C178.993 43.8817 179.034 43.7997 179.034 43.6889V43.6697C179.034 43.429 178.963 43.2425 178.82 43.1104C178.678 42.9783 178.472 42.9123 178.203 42.9123C177.92 42.9123 177.695 42.9741 177.529 43.0977C177.365 43.2212 177.254 43.3672 177.197 43.5355L176.116 43.3821C176.202 43.0838 176.342 42.8345 176.538 42.6342C176.734 42.4318 176.974 42.2805 177.257 42.1804C177.541 42.0781 177.854 42.027 178.197 42.027C178.434 42.027 178.669 42.0547 178.903 42.1101C179.138 42.1655 179.352 42.2571 179.546 42.3849C179.74 42.5107 179.895 42.6822 180.012 42.8995C180.132 43.1168 180.191 43.3885 180.191 43.7145V47H179.079V46.3256H179.041C178.97 46.462 178.871 46.5898 178.744 46.7092C178.618 46.8263 178.459 46.9212 178.267 46.9936C178.078 47.0639 177.855 47.0991 177.599 47.0991ZM177.9 46.2489C178.132 46.2489 178.333 46.2031 178.504 46.1115C178.674 46.0178 178.805 45.8942 178.897 45.7408C178.991 45.5874 179.038 45.4201 179.038 45.239V44.6605C179.001 44.6903 178.94 44.718 178.852 44.7436C178.767 44.7692 178.671 44.7915 178.565 44.8107C178.458 44.8299 178.353 44.8469 178.248 44.8619C178.144 44.8768 178.053 44.8896 177.977 44.9002C177.804 44.9237 177.649 44.962 177.513 45.0153C177.377 45.0685 177.269 45.1431 177.19 45.239C177.111 45.3327 177.072 45.4542 177.072 45.6033C177.072 45.8164 177.15 45.9773 177.305 46.0859C177.461 46.1946 177.659 46.2489 177.9 46.2489Z" fill="#547894"/>
<path d="M99.5039 45.1895C99.4688 45.2246 99.4688 45.2598 99.4688 45.2949V47.2812H93.2812V41.0938H97.5176C97.5527 41.0938 97.5879 41.0938 97.623 41.0586L98.1855 40.4961C98.2734 40.4082 98.2031 40.25 98.0801 40.25H93.2812C92.8066 40.25 92.4375 40.6367 92.4375 41.0938V47.2812C92.4375 47.7559 92.8066 48.125 93.2812 48.125H99.4688C99.9258 48.125 100.312 47.7559 100.312 47.2812V44.7324C100.312 44.6094 100.154 44.5391 100.066 44.627L99.5039 45.1895ZM102.246 41.6562C102.65 41.252 102.65 40.6016 102.246 40.1973L101.49 39.4414C101.086 39.0371 100.436 39.0371 100.031 39.4414L95.4258 44.0469L95.25 45.6465C95.1973 46.1035 95.584 46.4902 96.041 46.4375L97.6406 46.2617L102.246 41.6562ZM100.523 42.1836L97.2539 45.4531L96.0938 45.5938L96.2344 44.4336L99.5039 41.1641L100.523 42.1836ZM101.648 40.7949C101.736 40.8652 101.736 40.9707 101.666 41.0586L101.121 41.6035L100.102 40.5664L100.629 40.0391C100.699 39.9512 100.822 39.9512 100.893 40.0391L101.648 40.7949Z" fill="#547894"/>
<path d="M185 86C185 84.8954 185.895 84 187 84H256C257.105 84 258 84.8954 258 86V155C258 156.105 257.105 157 256 157H187C185.895 157 185 156.105 185 155V86Z" fill="url(#paint0_linear_627_2411)"/>
<path d="M14 86C14 84.8954 14.8954 84 16 84H172C173.105 84 174 84.8954 174 86V155C174 156.105 173.105 157 172 157H16C14.8954 157 14 156.105 14 155V86Z" fill="url(#paint1_linear_627_2411)"/>
<path d="M209.402 119.254C209.373 118.975 209.247 118.757 209.025 118.602C208.806 118.446 208.52 118.369 208.169 118.369C207.922 118.369 207.71 118.406 207.533 118.48C207.356 118.555 207.221 118.656 207.127 118.784C207.033 118.912 206.985 119.058 206.983 119.222C206.983 119.358 207.014 119.477 207.076 119.577C207.14 119.677 207.226 119.762 207.335 119.832C207.443 119.901 207.564 119.958 207.696 120.005C207.828 120.052 207.961 120.091 208.095 120.123L208.709 120.277C208.956 120.334 209.194 120.412 209.422 120.51C209.652 120.608 209.857 120.732 210.038 120.881C210.222 121.03 210.367 121.21 210.473 121.421C210.58 121.632 210.633 121.879 210.633 122.162C210.633 122.546 210.535 122.884 210.339 123.175C210.143 123.465 209.86 123.692 209.489 123.856C209.12 124.018 208.674 124.099 208.15 124.099C207.64 124.099 207.198 124.02 206.823 123.863C206.45 123.705 206.159 123.475 205.948 123.172C205.739 122.87 205.626 122.501 205.609 122.066H206.775C206.792 122.294 206.863 122.484 206.986 122.635C207.11 122.787 207.271 122.9 207.469 122.974C207.669 123.049 207.893 123.086 208.14 123.086C208.398 123.086 208.624 123.048 208.818 122.971C209.014 122.892 209.167 122.783 209.278 122.645C209.389 122.504 209.445 122.34 209.447 122.153C209.445 121.982 209.395 121.842 209.297 121.731C209.199 121.618 209.062 121.524 208.885 121.45C208.71 121.373 208.505 121.305 208.271 121.245L207.526 121.053C206.987 120.915 206.561 120.705 206.248 120.424C205.937 120.14 205.781 119.764 205.781 119.295C205.781 118.91 205.886 118.572 206.095 118.282C206.306 117.993 206.592 117.768 206.954 117.608C207.317 117.446 207.727 117.365 208.185 117.365C208.649 117.365 209.056 117.446 209.406 117.608C209.757 117.768 210.033 117.99 210.233 118.276C210.434 118.559 210.537 118.885 210.543 119.254H209.402ZM211.639 124V119.091H212.796V124H211.639ZM212.221 118.394C212.037 118.394 211.88 118.333 211.748 118.212C211.615 118.088 211.549 117.94 211.549 117.768C211.549 117.593 211.615 117.445 211.748 117.324C211.88 117.2 212.037 117.138 212.221 117.138C212.406 117.138 212.564 117.2 212.694 117.324C212.826 117.445 212.892 117.593 212.892 117.768C212.892 117.94 212.826 118.088 212.694 118.212C212.564 118.333 212.406 118.394 212.221 118.394ZM215.807 124.086C215.422 124.086 215.076 123.987 214.772 123.789C214.467 123.591 214.226 123.303 214.049 122.926C213.873 122.549 213.784 122.091 213.784 121.552C213.784 121.006 213.874 120.546 214.053 120.171C214.234 119.794 214.478 119.51 214.785 119.318C215.091 119.124 215.433 119.027 215.811 119.027C216.098 119.027 216.335 119.076 216.52 119.174C216.705 119.27 216.852 119.386 216.961 119.522C217.07 119.657 217.154 119.783 217.214 119.903H217.261V117.455H218.422V124H217.284V123.227H217.214C217.154 123.346 217.068 123.473 216.955 123.607C216.842 123.739 216.693 123.852 216.507 123.946C216.322 124.039 216.089 124.086 215.807 124.086ZM216.13 123.137C216.375 123.137 216.584 123.071 216.757 122.939C216.929 122.805 217.06 122.618 217.15 122.38C217.239 122.141 217.284 121.863 217.284 121.545C217.284 121.228 217.239 120.952 217.15 120.718C217.062 120.483 216.932 120.301 216.76 120.171C216.589 120.041 216.379 119.976 216.13 119.976C215.872 119.976 215.657 120.043 215.485 120.178C215.312 120.312 215.182 120.497 215.095 120.734C215.007 120.97 214.964 121.241 214.964 121.545C214.964 121.852 215.007 122.126 215.095 122.367C215.184 122.605 215.315 122.794 215.488 122.933C215.662 123.069 215.877 123.137 216.13 123.137ZM221.828 124.096C221.336 124.096 220.911 123.994 220.553 123.789C220.197 123.582 219.923 123.29 219.731 122.913C219.539 122.534 219.444 122.088 219.444 121.574C219.444 121.069 219.539 120.626 219.731 120.245C219.925 119.861 220.196 119.563 220.543 119.35C220.89 119.135 221.298 119.027 221.767 119.027C222.07 119.027 222.355 119.076 222.624 119.174C222.894 119.27 223.133 119.419 223.34 119.621C223.548 119.824 223.712 120.082 223.832 120.395C223.951 120.706 224.011 121.077 224.011 121.507V121.862H219.987V121.082H222.902C222.9 120.86 222.852 120.663 222.758 120.491C222.664 120.316 222.533 120.179 222.365 120.078C222.199 119.978 222.005 119.928 221.783 119.928C221.547 119.928 221.339 119.986 221.16 120.101C220.981 120.214 220.841 120.363 220.741 120.548C220.643 120.732 220.593 120.933 220.591 121.152V121.833C220.591 122.119 220.643 122.364 220.748 122.568C220.852 122.771 220.998 122.926 221.185 123.035C221.373 123.141 221.592 123.195 221.844 123.195C222.012 123.195 222.164 123.171 222.301 123.124C222.437 123.075 222.555 123.004 222.656 122.91C222.756 122.816 222.831 122.7 222.883 122.562L223.963 122.683C223.895 122.969 223.765 123.218 223.573 123.431C223.383 123.642 223.14 123.806 222.844 123.923C222.548 124.038 222.209 124.096 221.828 124.096ZM225.041 124V117.455H226.198V119.903H226.246C226.305 119.783 226.389 119.657 226.498 119.522C226.607 119.386 226.754 119.27 226.939 119.174C227.124 119.076 227.361 119.027 227.649 119.027C228.028 119.027 228.37 119.124 228.674 119.318C228.981 119.51 229.224 119.794 229.403 120.171C229.584 120.546 229.675 121.006 229.675 121.552C229.675 122.091 229.586 122.549 229.41 122.926C229.233 123.303 228.992 123.591 228.687 123.789C228.383 123.987 228.037 124.086 227.652 124.086C227.371 124.086 227.137 124.039 226.952 123.946C226.766 123.852 226.617 123.739 226.504 123.607C226.394 123.473 226.307 123.346 226.246 123.227H226.178V124H225.041ZM226.175 121.545C226.175 121.863 226.22 122.141 226.309 122.38C226.401 122.618 226.532 122.805 226.703 122.939C226.875 123.071 227.084 123.137 227.329 123.137C227.585 123.137 227.799 123.069 227.971 122.933C228.144 122.794 228.274 122.605 228.361 122.367C228.451 122.126 228.496 121.852 228.496 121.545C228.496 121.241 228.452 120.97 228.364 120.734C228.277 120.497 228.147 120.312 227.975 120.178C227.802 120.043 227.587 119.976 227.329 119.976C227.082 119.976 226.872 120.041 226.699 120.171C226.527 120.301 226.396 120.483 226.306 120.718C226.219 120.952 226.175 121.228 226.175 121.545ZM232.071 124.099C231.76 124.099 231.48 124.044 231.231 123.933C230.983 123.82 230.787 123.654 230.642 123.434C230.5 123.215 230.428 122.944 230.428 122.623C230.428 122.346 230.479 122.116 230.582 121.935C230.684 121.754 230.824 121.609 231 121.501C231.177 121.392 231.376 121.31 231.598 121.255C231.822 121.197 232.053 121.156 232.292 121.13C232.579 121.1 232.813 121.074 232.992 121.05C233.17 121.025 233.3 120.986 233.381 120.935C233.465 120.882 233.506 120.8 233.506 120.689V120.67C233.506 120.429 233.435 120.243 233.292 120.11C233.149 119.978 232.944 119.912 232.675 119.912C232.392 119.912 232.167 119.974 232.001 120.098C231.837 120.221 231.726 120.367 231.668 120.536L230.588 120.382C230.673 120.084 230.814 119.835 231.01 119.634C231.206 119.432 231.446 119.281 231.729 119.18C232.012 119.078 232.326 119.027 232.669 119.027C232.905 119.027 233.141 119.055 233.375 119.11C233.609 119.165 233.824 119.257 234.017 119.385C234.211 119.511 234.367 119.682 234.484 119.9C234.603 120.117 234.663 120.388 234.663 120.714V124H233.551V123.326H233.512C233.442 123.462 233.343 123.59 233.215 123.709C233.09 123.826 232.931 123.921 232.739 123.994C232.549 124.064 232.327 124.099 232.071 124.099ZM232.371 123.249C232.604 123.249 232.805 123.203 232.976 123.112C233.146 123.018 233.277 122.894 233.369 122.741C233.462 122.587 233.509 122.42 233.509 122.239V121.661C233.473 121.69 233.411 121.718 233.324 121.744C233.239 121.769 233.143 121.792 233.036 121.811C232.93 121.83 232.824 121.847 232.72 121.862C232.615 121.877 232.525 121.89 232.448 121.9C232.276 121.924 232.121 121.962 231.985 122.015C231.848 122.069 231.741 122.143 231.662 122.239C231.583 122.333 231.544 122.454 231.544 122.603C231.544 122.816 231.621 122.977 231.777 123.086C231.933 123.195 232.131 123.249 232.371 123.249ZM235.826 124V119.091H236.948V119.909H236.999C237.089 119.626 237.242 119.407 237.46 119.254C237.679 119.098 237.929 119.021 238.211 119.021C238.275 119.021 238.346 119.024 238.425 119.03C238.506 119.034 238.573 119.042 238.626 119.053V120.117C238.577 120.1 238.499 120.085 238.393 120.072C238.288 120.057 238.187 120.05 238.089 120.05C237.878 120.05 237.689 120.096 237.52 120.187C237.354 120.277 237.223 120.401 237.127 120.561C237.031 120.721 236.983 120.905 236.983 121.114V124H235.826Z" fill="#919191"/>
<path d="M82.0589 119.545C82.0056 119.372 81.9321 119.218 81.8383 119.081C81.7467 118.943 81.6359 118.825 81.5059 118.727C81.3781 118.629 81.2311 118.555 81.0649 118.506C80.8987 118.455 80.7176 118.429 80.5216 118.429C80.17 118.429 79.8568 118.518 79.5819 118.695C79.3071 118.871 79.0908 119.131 78.9331 119.474C78.7776 119.815 78.6998 120.231 78.6998 120.721C78.6998 121.215 78.7776 121.634 78.9331 121.977C79.0887 122.32 79.305 122.581 79.5819 122.76C79.8589 122.937 80.1807 123.025 80.5471 123.025C80.8795 123.025 81.1672 122.961 81.4101 122.833C81.6551 122.706 81.8437 122.525 81.9758 122.29C82.1079 122.054 82.1739 121.777 82.1739 121.459L82.4424 121.501H80.6654V120.574H83.3213V121.36C83.3213 121.92 83.202 122.405 82.9633 122.814C82.7247 123.223 82.3966 123.539 81.979 123.76C81.5613 123.98 81.0819 124.089 80.5407 124.089C79.9378 124.089 79.4083 123.954 78.9523 123.684C78.4985 123.411 78.1437 123.024 77.8881 122.523C77.6345 122.021 77.5077 121.424 77.5077 120.734C77.5077 120.205 77.5823 119.733 77.7314 119.318C77.8827 118.902 78.0937 118.55 78.3643 118.26C78.6349 117.968 78.9523 117.746 79.3167 117.595C79.681 117.442 80.0773 117.365 80.5056 117.365C80.8678 117.365 81.2055 117.418 81.5187 117.525C81.8319 117.629 82.11 117.778 82.3529 117.972C82.5979 118.166 82.7993 118.396 82.9569 118.663C83.1146 118.929 83.218 119.223 83.267 119.545H82.0589ZM86.59 124.096C86.0978 124.096 85.6728 123.994 85.3148 123.789C84.959 123.582 84.6852 123.29 84.4934 122.913C84.3017 122.534 84.2058 122.088 84.2058 121.574C84.2058 121.069 84.3017 120.626 84.4934 120.245C84.6873 119.861 84.9579 119.563 85.3052 119.35C85.6525 119.135 86.0605 119.027 86.5293 119.027C86.8319 119.027 87.1174 119.076 87.3858 119.174C87.6564 119.27 87.8951 119.419 88.1017 119.621C88.3105 119.824 88.4746 120.082 88.5939 120.395C88.7132 120.706 88.7729 121.077 88.7729 121.507V121.862H84.7491V121.082H87.6639C87.6618 120.86 87.6138 120.663 87.5201 120.491C87.4263 120.316 87.2953 120.179 87.127 120.078C86.9608 119.978 86.7669 119.928 86.5453 119.928C86.3088 119.928 86.101 119.986 85.9221 120.101C85.7431 120.214 85.6035 120.363 85.5034 120.548C85.4054 120.732 85.3553 120.933 85.3532 121.152V121.833C85.3532 122.119 85.4054 122.364 85.5098 122.568C85.6142 122.771 85.7601 122.926 85.9476 123.035C86.1351 123.141 86.3546 123.195 86.606 123.195C86.7743 123.195 86.9267 123.171 87.063 123.124C87.1994 123.075 87.3176 123.004 87.4178 122.91C87.5179 122.816 87.5936 122.7 87.6447 122.562L88.725 122.683C88.6568 122.969 88.5268 123.218 88.3351 123.431C88.1454 123.642 87.9025 123.806 87.6064 123.923C87.3102 124.038 86.9714 124.096 86.59 124.096ZM90.9086 121.124V124H89.7517V119.091H90.8575V119.925H90.915C91.028 119.65 91.208 119.432 91.4552 119.27C91.7045 119.108 92.0123 119.027 92.3788 119.027C92.7176 119.027 93.0127 119.099 93.2641 119.244C93.5177 119.389 93.7137 119.599 93.8522 119.874C93.9928 120.149 94.0621 120.482 94.0599 120.874V124H92.903V121.053C92.903 120.725 92.8177 120.468 92.6473 120.283C92.479 120.098 92.2456 120.005 91.9474 120.005C91.7449 120.005 91.5649 120.05 91.4072 120.139C91.2517 120.227 91.1292 120.353 91.0397 120.52C90.9523 120.686 90.9086 120.887 90.9086 121.124ZM97.4094 124.096C96.9172 124.096 96.4921 123.994 96.1341 123.789C95.7783 123.582 95.5045 123.29 95.3128 122.913C95.121 122.534 95.0251 122.088 95.0251 121.574C95.0251 121.069 95.121 120.626 95.3128 120.245C95.5067 119.861 95.7773 119.563 96.1246 119.35C96.4719 119.135 96.8799 119.027 97.3486 119.027C97.6512 119.027 97.9367 119.076 98.2052 119.174C98.4758 119.27 98.7144 119.419 98.9211 119.621C99.1299 119.824 99.2939 120.082 99.4133 120.395C99.5326 120.706 99.5922 121.077 99.5922 121.507V121.862H95.5684V121.082H98.4832C98.4811 120.86 98.4332 120.663 98.3394 120.491C98.2457 120.316 98.1146 120.179 97.9463 120.078C97.7801 119.978 97.5862 119.928 97.3646 119.928C97.1281 119.928 96.9204 119.986 96.7414 120.101C96.5624 120.214 96.4229 120.363 96.3227 120.548C96.2247 120.732 96.1746 120.933 96.1725 121.152V121.833C96.1725 122.119 96.2247 122.364 96.3291 122.568C96.4335 122.771 96.5795 122.926 96.767 123.035C96.9545 123.141 97.1739 123.195 97.4253 123.195C97.5937 123.195 97.746 123.171 97.8824 123.124C98.0187 123.075 98.137 123.004 98.2371 122.91C98.3373 122.816 98.4129 122.7 98.464 122.562L99.5443 122.683C99.4761 122.969 99.3461 123.218 99.1544 123.431C98.9648 123.642 98.7219 123.806 98.4257 123.923C98.1295 124.038 97.7907 124.096 97.4094 124.096ZM100.571 124V119.091H101.693V119.909H101.744C101.833 119.626 101.987 119.407 102.204 119.254C102.424 119.098 102.674 119.021 102.955 119.021C103.019 119.021 103.091 119.024 103.169 119.03C103.25 119.034 103.317 119.042 103.371 119.053V120.117C103.322 120.1 103.244 120.085 103.137 120.072C103.033 120.057 102.932 120.05 102.834 120.05C102.623 120.05 102.433 120.096 102.265 120.187C102.099 120.277 101.968 120.401 101.872 120.561C101.776 120.721 101.728 120.905 101.728 121.114V124H100.571ZM105.464 124.099C105.153 124.099 104.873 124.044 104.624 123.933C104.376 123.82 104.18 123.654 104.036 123.434C103.893 123.215 103.821 122.944 103.821 122.623C103.821 122.346 103.873 122.116 103.975 121.935C104.077 121.754 104.217 121.609 104.393 121.501C104.57 121.392 104.77 121.31 104.991 121.255C105.215 121.197 105.446 121.156 105.685 121.13C105.972 121.1 106.206 121.074 106.385 121.05C106.564 121.025 106.694 120.986 106.775 120.935C106.858 120.882 106.899 120.8 106.899 120.689V120.67C106.899 120.429 106.828 120.243 106.685 120.11C106.542 119.978 106.337 119.912 106.068 119.912C105.785 119.912 105.56 119.974 105.394 120.098C105.23 120.221 105.119 120.367 105.061 120.536L103.981 120.382C104.066 120.084 104.207 119.835 104.403 119.634C104.599 119.432 104.839 119.281 105.122 119.18C105.406 119.078 105.719 119.027 106.062 119.027C106.298 119.027 106.534 119.055 106.768 119.11C107.002 119.165 107.217 119.257 107.411 119.385C107.604 119.511 107.76 119.682 107.877 119.9C107.996 120.117 108.056 120.388 108.056 120.714V124H106.944V123.326H106.906C106.835 123.462 106.736 123.59 106.608 123.709C106.483 123.826 106.324 123.921 106.132 123.994C105.942 124.064 105.72 124.099 105.464 124.099ZM105.765 123.249C105.997 123.249 106.198 123.203 106.369 123.112C106.539 123.018 106.67 122.894 106.762 122.741C106.855 122.587 106.902 122.42 106.902 122.239V121.661C106.866 121.69 106.804 121.718 106.717 121.744C106.632 121.769 106.536 121.792 106.429 121.811C106.323 121.83 106.217 121.847 106.113 121.862C106.009 121.877 105.918 121.89 105.841 121.9C105.669 121.924 105.514 121.962 105.378 122.015C105.241 122.069 105.134 122.143 105.055 122.239C104.976 122.333 104.937 122.454 104.937 122.603C104.937 122.816 105.015 122.977 105.17 123.086C105.326 123.195 105.524 123.249 105.765 123.249ZM110.376 117.455V124H109.219V117.455H110.376Z" fill="#919191"/>
<defs>
<linearGradient id="paint0_linear_627_2411" x1="221.5" y1="84" x2="221.5" y2="157" gradientUnits="userSpaceOnUse">
<stop stop-color="#E8E8E8"/>
<stop offset="1" stop-color="#E8E8E8"/>
</linearGradient>
<linearGradient id="paint1_linear_627_2411" x1="94" y1="84" x2="94" y2="157" gradientUnits="userSpaceOnUse">
<stop stop-color="#E8E8E8"/>
<stop offset="1" stop-color="#E8E8E8"/>
</linearGradient>
</defs>
</svg>
