<svg width="272" height="171" viewBox="0 0 272 171" fill="none" xmlns="http://www.w3.org/2000/svg">
<path d="M0 2C0 0.895433 0.895431 0 2 0H270C271.105 0 272 0.895431 272 2V171H0V2Z" fill="white"/>
<path d="M0 2C0 0.89543 0.895431 0 2 0H270C271.105 0 272 0.895431 272 2V14H0V2Z" fill="#1E272E"/>
<circle cx="12" cy="7" r="3" fill="#6B6B6B"/>
<rect x="18" y="6" width="14" height="2" rx="1" fill="#6B6B6B"/>
<rect x="244" y="6" width="14" height="2" rx="1" fill="#6B6B6B"/>
<rect x="226" y="6" width="14" height="2" rx="1" fill="#6B6B6B"/>
<rect x="208" y="6" width="14" height="2" rx="1" fill="#6B6B6B"/>
<rect x="14" y="27" width="176" height="129" rx="2" fill="#E8E8E8"/>
<rect x="198" y="27" width="60" height="129" rx="2" fill="#E8E8E8"/>
</svg>
