<svg width="256" height="256" viewBox="0 0 256 256" fill="none" xmlns="http://www.w3.org/2000/svg">
<circle cx="128" cy="128" r="128" fill="url(#paint0_linear_404_54)"/>
<path fill-rule="evenodd" clip-rule="evenodd" d="M164.213 57.6536C159.907 57.6536 156.416 61.1444 156.416 65.4506V114.832C156.416 119.138 159.907 122.629 164.213 122.629H190.203C194.509 122.629 198 119.138 198 114.832V65.4506C198 61.1444 194.509 57.6536 190.203 57.6536H164.213ZM161.614 65.4506C161.614 64.0152 162.778 62.8516 164.213 62.8516H190.203C191.638 62.8516 192.802 64.0152 192.802 65.4506V114.832C192.802 116.267 191.638 117.431 190.203 117.431H164.213C162.778 117.431 161.614 116.267 161.614 114.832V65.4506Z" fill="white"/>
<path fill-rule="evenodd" clip-rule="evenodd" d="M105.434 95.4039C103.281 91.6746 104.558 86.9061 108.288 84.753L135.297 69.1589C139.027 67.0058 143.795 68.2836 145.948 72.0128L151.146 81.0161C153.299 84.7453 152.022 89.5139 148.292 91.667L121.283 107.261C117.553 109.414 112.785 108.136 110.632 104.407L105.434 95.4039ZM110.887 89.2546C109.644 89.9723 109.218 91.5618 109.935 92.8049L115.133 101.808C115.851 103.051 117.441 103.477 118.684 102.759L145.693 87.1654C146.936 86.4477 147.362 84.8581 146.645 83.6151L141.447 74.6118C140.729 73.3687 139.139 72.9428 137.896 73.6605L110.887 89.2546Z" fill="white"/>
<path fill-rule="evenodd" clip-rule="evenodd" d="M57.6536 114.832C57.6536 110.526 61.1444 107.035 65.4506 107.035H91.4407C95.7469 107.035 99.2377 110.526 99.2377 114.832V190.203C99.2377 194.509 95.7469 198 91.4407 198H65.4506C61.1444 198 57.6536 194.509 57.6536 190.203V114.832ZM65.4506 112.233C64.0152 112.233 62.8516 113.396 62.8516 114.832V190.203C62.8516 191.638 64.0152 192.802 65.4506 192.802H91.4407C92.8761 192.802 94.0397 191.638 94.0397 190.203V114.832C94.0397 113.396 92.8761 112.233 91.4407 112.233H65.4506Z" fill="white"/>
<path fill-rule="evenodd" clip-rule="evenodd" d="M156.416 138.223C156.416 133.917 159.907 130.426 164.213 130.426H190.203C194.509 130.426 198 133.917 198 138.223V190.203C198 194.509 194.509 198 190.203 198H164.213C159.907 198 156.416 194.509 156.416 190.203V138.223ZM164.213 135.624C162.778 135.624 161.614 136.787 161.614 138.223V190.203C161.614 191.638 162.778 192.802 164.213 192.802H190.203C191.638 192.802 192.802 191.638 192.802 190.203V138.223C192.802 136.787 191.638 135.624 190.203 135.624H164.213Z" fill="white"/>
<path fill-rule="evenodd" clip-rule="evenodd" d="M114.832 148.619C110.526 148.619 107.035 152.11 107.035 156.416V190.203C107.035 194.509 110.526 198 114.832 198H140.822C145.128 198 148.619 194.509 148.619 190.203V156.416C148.619 152.11 145.128 148.619 140.822 148.619H114.832ZM112.233 156.416C112.233 154.98 113.396 153.817 114.832 153.817H140.822C142.257 153.817 143.421 154.98 143.421 156.416V190.203C143.421 191.638 142.257 192.802 140.822 192.802H114.832C113.396 192.802 112.233 191.638 112.233 190.203V156.416Z" fill="white"/>
<path fill-rule="evenodd" clip-rule="evenodd" d="M107.035 122.629C107.035 118.323 110.526 114.832 114.832 114.832H140.822C145.128 114.832 148.619 118.323 148.619 122.629V133.025C148.619 137.331 145.128 140.822 140.822 140.822H114.832C110.526 140.822 107.035 137.331 107.035 133.025V122.629ZM114.832 120.03C113.396 120.03 112.233 121.193 112.233 122.629V133.025C112.233 134.46 113.396 135.624 114.832 135.624H140.822C142.257 135.624 143.421 134.46 143.421 133.025V122.629C143.421 121.193 142.257 120.03 140.822 120.03H114.832Z" fill="white"/>
<path fill-rule="evenodd" clip-rule="evenodd" d="M65.4506 57.6536C61.1444 57.6536 57.6536 61.1444 57.6536 65.4506V91.4407C57.6536 95.7469 61.1444 99.2377 65.4506 99.2377H91.4407C95.7469 99.2377 99.2377 95.7469 99.2377 91.4407V65.4506C99.2377 61.1444 95.7469 57.6536 91.4407 57.6536H65.4506ZM62.8516 65.4506C62.8516 64.0152 64.0152 62.8516 65.4506 62.8516H91.4407C92.8761 62.8516 94.0397 64.0152 94.0397 65.4506V91.4407C94.0397 92.8761 92.8761 94.0397 91.4407 94.0397H65.4506C64.0152 94.0397 62.8516 92.8761 62.8516 91.4407V65.4506Z" fill="white"/>
<defs>
<linearGradient id="paint0_linear_404_54" x1="1.67638e-06" y1="32" x2="256" y2="232" gradientUnits="userSpaceOnUse">
<stop stop-color="#7E5CEF"/>
<stop offset="1" stop-color="#0ECAD4"/>
</linearGradient>
</defs>
</svg>
