<svg width="8" height="11" viewBox="0 0 8 11" fill="none" xmlns="http://www.w3.org/2000/svg">
<path d="M7.21389 6.36415L2.83403 10.744C2.68374 10.8943 2.50124 10.9694 2.28654 10.9694C2.07185 10.9694 1.88935 10.8943 1.73906 10.744L1.03056 10.0033C0.880266 9.85301 0.805121 9.67052 0.805121 9.45582C0.805121 9.24112 0.880266 9.05862 1.03056 8.90833L4.12222 5.81667L1.03056 2.725C0.880266 2.57471 0.805121 2.39222 0.805121 2.17752C0.805121 1.96282 0.880266 1.78032 1.03056 1.63004L1.73906 0.889324C1.88935 0.739034 2.07185 0.66389 2.28654 0.66389C2.50124 0.66389 2.68374 0.739034 2.83403 0.889324L7.21389 5.26918C7.36418 5.41947 7.43932 5.60197 7.43932 5.81667C7.43932 6.03137 7.36418 6.21386 7.21389 6.36415Z" fill="white"/>
</svg>
