<svg width="290" height="149" viewBox="0 0 290 149" fill="none" xmlns="http://www.w3.org/2000/svg">
<rect width="138" height="74.4886" rx="2" fill="white"/>
<circle cx="16.0568" cy="55.2614" r="6.64773" fill="#E8E8E8"/>
<rect x="29.3529" y="53.0456" width="31.0227" height="4.43182" rx="2.21591" fill="#E8E8E8"/>
<rect x="9.40909" y="13.3295" width="116.045" height="4.70455" rx="2.35227" fill="#E8E8E8"/>
<rect x="9.40909" y="23.5227" width="100.364" height="4.70455" rx="2.35227" fill="#E8E8E8"/>
<rect x="9.40909" y="33.7159" width="107.42" height="4.70455" rx="2.35227" fill="#E8E8E8"/>
<rect y="84" width="138" height="65" rx="2" fill="white"/>
<rect x="9" y="96" width="56" height="31" rx="1" fill="#E8E8E8"/>
<rect x="72" y="96" width="56" height="31" rx="1" fill="#E8E8E8"/>
<rect x="9" y="131" width="27" height="2" rx="1" fill="#E8E8E8"/>
<rect x="72" y="131" width="27" height="2" rx="1" fill="#E8E8E8"/>
<rect x="9" y="135" width="21" height="2" rx="1" fill="#E8E8E8"/>
<rect x="72" y="135" width="21" height="2" rx="1" fill="#E8E8E8"/>
<rect x="152" width="138" height="149" rx="2" fill="white"/>
<rect x="217" y="24" width="56" height="3" rx="1.5" fill="#E8E8E8"/>
<rect x="217" y="17" width="58" height="3" rx="1.5" fill="#E8E8E8"/>
<rect x="217" y="31" width="51" height="3" rx="1.5" fill="#E8E8E8"/>
<rect x="217" y="38" width="55" height="3" rx="1.5" fill="#E8E8E8"/>
<rect x="166" y="10" width="46" height="36" rx="1" fill="#E8E8E8"/>
<rect x="217" y="70" width="56" height="3" rx="1.5" fill="#E8E8E8"/>
<rect x="217" y="63" width="58" height="3" rx="1.5" fill="#E8E8E8"/>
<rect x="217" y="77" width="51" height="3" rx="1.5" fill="#E8E8E8"/>
<rect x="217" y="84" width="55" height="3" rx="1.5" fill="#E8E8E8"/>
<rect x="166" y="56" width="46" height="36" rx="1" fill="#E8E8E8"/>
<rect x="217" y="116" width="56" height="3" rx="1.5" fill="#E8E8E8"/>
<rect x="217" y="109" width="58" height="3" rx="1.5" fill="#E8E8E8"/>
<rect x="217" y="123" width="51" height="3" rx="1.5" fill="#E8E8E8"/>
<rect x="217" y="130" width="55" height="3" rx="1.5" fill="#E8E8E8"/>
<rect x="166" y="102" width="46" height="36" rx="1" fill="#E8E8E8"/>
</svg>
